<svg xmlns="http://www.w3.org/2000/svg" viewBox="0 0 387.66 387.67"><defs><style>.cls-1{isolation:isolate;}.cls-2{fill:#00b1c3;}.cls-3{fill:#efbfa5;}.cls-4{fill:#dadada;}.cls-4,.cls-9{mix-blend-mode:multiply;}.cls-5{fill:#240800;}.cls-6{fill:#432918;}.cls-7{fill:#fff;}.cls-8{fill:#f39200;}.cls-9{fill:#c6c6c6;}.cls-10{fill:#262b33;}.cls-11{fill:#020408;}.cls-12{fill:#321107;}</style></defs><g class="cls-1"><g id="Capa_1" data-name="Capa 1"><ellipse class="cls-2" cx="193.83" cy="193.84" rx="193.83" ry="193.84"/><rect class="cls-3" x="167.27" y="217.74" width="52.93" height="27.84"/><path class="cls-4" d="M213.24,270.25a50.4,50.4,0,0,0,23.34-6.54,42.24,42.24,0,0,0,12.81-11c.63-.84,1.33-1.79,2-2.8v-1H198.44v20.83A118.22,118.22,0,0,0,213.24,270.25Z" transform="translate(-31.17 -31.16)"/><path class="cls-3" d="M224.92,92.62h0c-33.82.95-59.63,14.85-59.5,62.76.07,28.4,2.66,36.79,10.94,69.2,5.73,22.43,36.2,34.26,47.81,35l.77-.07.77.07c11.62-.77,42.09-12.6,47.81-35,8.28-32.41,10.87-40.8,10.95-69.2C284.55,107.47,258.74,93.57,224.92,92.62Z" transform="translate(-31.17 -31.16)"/><path class="cls-5" d="M206.88,254.75c6.81,3,13.19,4.59,17.25,4.86l.77-.07.77.07c3.78-.25,9.56-1.68,15.83-4.26l6.05-8.39s-18.71,21-45.17,0l4.5,7.79" transform="translate(-31.17 -31.16)"/><path class="cls-3" d="M278,175.09l-3.69,28.29c14.51,6.39,16.79-26.9,16.79-26.9C287.69,168.17,278,175.09,278,175.09Z" transform="translate(-31.17 -31.16)"/><path class="cls-3" d="M157,176.48s2.26,33.29,16.78,26.9l-3.69-28.29S160.34,168.17,157,176.48Z" transform="translate(-31.17 -31.16)"/><path class="cls-6" d="M274.94,137.38" transform="translate(-31.17 -31.16)"/><path class="cls-3" d="M251.83,276.75l71.48,18.61S347.7,299.1,353.92,321l10.67,39.73H85.41L96.08,321c6.22-21.91,30.61-25.65,30.61-25.65L198,276.75Z" transform="translate(-31.17 -31.16)"/><path class="cls-7" d="M85.41,360.74,96.08,321c6.22-21.91,30.61-25.65,30.61-25.65L198,276.75h53.86l71.48,18.61S347.7,299.1,353.92,321l10.67,39.73" transform="translate(-31.17 -31.16)"/><polygon class="cls-8" points="198.43 245.59 193.91 245.59 193.75 245.59 189.23 245.59 176.14 266.22 187.85 279.4 193.75 279.4 193.91 279.4 199.81 279.4 211.52 266.22 198.43 245.59"/><path class="cls-9" d="M231.51,308.05c-7.67-8.06-10.89-20.27-8.92-31.3H220.4l-13.09,20.63L219,310.56h12l1.44-1.61C232.1,308.65,231.8,308.35,231.51,308.05Z" transform="translate(-31.17 -31.16)"/><polygon class="cls-9" points="220.28 232.55 193.63 246.47 211.19 272.93 243.09 253.73 220.28 232.55"/><polygon class="cls-7" points="220.28 232.55 193.63 246.47 211.51 269.42 241.34 252.15 220.28 232.55"/><polygon class="cls-9" points="167.13 231.67 193.63 245.59 176.22 272.04 144.33 252.85 167.13 231.67"/><polygon class="cls-7" points="167.13 231.67 193.79 245.59 175.9 268.53 146.07 251.26 167.13 231.67"/><path class="cls-10" d="M177.59,282.11l-50.9,13.25S102.3,299.1,96.08,321L85.41,360.74H364.59L353.92,321c-6.22-21.91-30.61-25.65-30.61-25.65L270,280.07l-45.21,78.7Z" transform="translate(-31.17 -31.16)"/><polygon class="cls-8" points="187.65 279.4 181.27 307.54 193.63 327.6 205.16 307.53 199.61 279.4 187.65 279.4"/><polygon class="cls-11" points="146.42 250.94 122.31 257.22 135.91 262.5 127.51 272.04 176.14 329.58 195.04 329.58 146.42 250.94"/><polygon class="cls-11" points="238.84 248.9 265.37 256.51 251.77 262.5 260.16 272.04 211.53 329.58 192.64 329.58 238.84 248.9"/><path class="cls-5" d="M170.92,179.24l3,35.89c-15.69-42.23-6.62-97.47-6.62-97.47,1.64-14.33,17.54-18.87,17.54-18.87,3.08-17.7,35-22.32,35-22.32C307.58,73.39,284.43,170,284.43,170c0,14.62-9.49,48.88-9.49,48.88l3.56-46.49c0-8.87-8.47-18.29-7.86-24.75,3.62-38.46-24.91-33.76-24.91-33.76-17.26,3.4-38.42-.07-38.42-.07s-33.54-11.17-30.07,35.78C177.24,149.59,180.1,154.62,170.92,179.24Z" transform="translate(-31.17 -31.16)"/><path class="cls-3" d="M225.11,240.19c9.66-.86,15.26-5.34,15.26-5.34-10.07-4.53-14.5-2.48-15.47-1.88-1-.6-5.4-2.65-15.46,1.88,0,0,5.6,4.48,15.25,5.34v0l.21,0,.21,0Z" transform="translate(-31.17 -31.16)"/><path class="cls-5" d="M249.83,231.12" transform="translate(-31.17 -31.16)"/><path class="cls-5" d="M219.86,220c-4-1.13-10.23.22-13.75,2.17a19.12,19.12,0,0,0-8.59,11.1,16.93,16.93,0,0,0,6.38,19.36c1.06.78,2.92,2.42,4.26,2.7-3.59-4.12-6.16-9.5-6.18-15.05a15,15,0,0,1,14.14-15.36c2.2-.16,6.79.27,8.34,2.15A6.08,6.08,0,0,0,219.86,220Z" transform="translate(-31.17 -31.16)"/><path class="cls-5" d="M229.46,220c4-1.13,10.23.22,13.75,2.17a19.12,19.12,0,0,1,8.59,11.1,16.93,16.93,0,0,1-6.38,19.36c-1.06.78-2.92,2.42-4.25,2.7,3.58-4.12,6.15-9.5,6.17-15.05a15,15,0,0,0-14.14-15.36c-2.2-.16-7.19.27-8.74,2.15C223.93,223.61,226.23,220.87,229.46,220Z" transform="translate(-31.17 -31.16)"/><path class="cls-5" d="M241.54,255.3s17.67-6.61,26.7-19.65c0,0-8.92,4.38-16.87,4C251.37,239.65,249.19,250.36,241.54,255.3Z" transform="translate(-31.17 -31.16)"/><path class="cls-5" d="M208.32,255.3s-17.67-6.61-26.71-19.65c0,0,8.93,4.38,16.88,4C198.49,239.65,200.67,250.36,208.32,255.3Z" transform="translate(-31.17 -31.16)"/><path class="cls-5" d="M228.5,249.39c.73-2.38,1-8-3.6-7.51-4.56-.45-4.33,5.13-3.6,7.51,1,3.18-4.67,6.54-4.71,6.35l0,.19,8.27,1.73,8.27-1.73,0-.19C233.17,255.93,227.53,252.57,228.5,249.39Z" transform="translate(-31.17 -31.16)"/><path class="cls-12" d="M193.48,92.83a64.65,64.65,0,0,1,6.38,9c-.05-3-.1-6,.06-9,3.36,2.11,6.23,7.29,10.21,8,.15-2,.11-4.24.29-6.1,4.54,2.72,15.41,10.51,14.9-.1,4.06,1.12,7.4,6,11.94,6.77,0-.83.27-1.89.18-2.72,2.83,0,9.07,6.94,9.23.58,3.76.31,11.66,5.62,14.53,8,3.82,3.21,8.44,7.22,10.83,11.52.7-2.12,0-4.77-.08-7.38,1.57,3.38,4.85,8.35,8.62,9-.05-.07-.81-1.21-1-1.44a9.07,9.07,0,0,0,1.08,3.64c-.45-5.32-3.92-11.57-7.41-15.35,0,.44,0,1.08-.09,1.52a7.75,7.75,0,0,0-2.77-4.4c-.12,1.36-1,2.88-.84,4.41a81.74,81.74,0,0,0-5.81-11.37c-.28,1.08-1.12,2.24-1.11,3.78-.53-3.44-2.22-6.74-5.11-8.37-.15.65-.52,1.43-.66,2.22-1.46-1.94-2.54-5-5.56-4.47a20.45,20.45,0,0,1-1.22,2.29c-2.07-1.23-3.52-3.15-5.72-4.08.19,1.18-.35,2.75-.15,4-3.29-1.63-6.46-5.43-10.18-2.9A20.2,20.2,0,0,0,222,83.61c-.87,3.41,1.88,6.46,4.3,8.67a78.09,78.09,0,0,0-12.46-7.91c-.42,5.18-5.2,1.49-7.16,4.94-2.84-1.46-6.3-2.88-8.66,0-7.38-6.17-7.94,4-3.35,6.42" transform="translate(-31.17 -31.16)"/></g></g></svg>