<?xml version="1.0" encoding="UTF-8"?>
<svg xmlns="http://www.w3.org/2000/svg" xmlns:xlink="http://www.w3.org/1999/xlink" viewBox="0 0 240 240" width="240px" height="240px">
<defs>
<linearGradient id="linear0" gradientUnits="userSpaceOnUse" x1="47.050381" y1="47.050381" x2="191.228958" y2="191.228958" gradientTransform="matrix(1.061947,0,0,1.061947,0,0)">
<stop offset="0" style="stop-color:rgb(10.196079%,73.725492%,61.176473%);stop-opacity:1;"/>
<stop offset="1" style="stop-color:rgb(0%,47.843137%,85.09804%);stop-opacity:1;"/>
</linearGradient>
</defs>
<g id="surface69605759">
<path style=" stroke:none;fill-rule:nonzero;fill:url(#linear0);" d="M 120 20 C 64.769531 20 20 64.769531 20 120 C 20 175.230469 64.769531 220 120 220 C 175.230469 220 220 175.230469 220 120 C 220 64.769531 175.230469 20 120 20 Z M 120 20 "/>
<path style=" stroke:none;fill-rule:nonzero;fill:rgb(100%,100%,100%);fill-opacity:1;" d="M 133.535156 146.503906 L 159.414062 146.503906 L 163.480469 120.214844 L 133.535156 120.214844 L 133.535156 105.84375 C 133.535156 94.925781 137.105469 85.238281 147.320312 85.238281 L 163.734375 85.238281 L 163.734375 62.300781 C 160.851562 61.910156 154.75 61.058594 143.226562 61.058594 C 119.15625 61.058594 105.046875 73.769531 105.046875 102.730469 L 105.046875 120.21875 L 80.300781 120.21875 L 80.300781 146.511719 L 105.039062 146.511719 L 105.039062 218.769531 C 109.941406 219.5 114.90625 220 120 220 C 124.605469 220 129.101562 219.578125 133.535156 218.980469 Z M 133.535156 146.503906 "/>
</g>
</svg>
