<?xml version="1.0" encoding="UTF-8"?>
<svg xmlns="http://www.w3.org/2000/svg" xmlns:xlink="http://www.w3.org/1999/xlink" viewBox="0 0 240 240" width="240px" height="240px">
<defs>
<radialGradient id="radial0" gradientUnits="userSpaceOnUse" cx="91.247498" cy="197.914795" fx="91.247498" fy="197.914795" r="211.39946" gradientTransform="matrix(1.061947,0,0,1.061947,0,0)">
<stop offset="0" style="stop-color:rgb(10.196079%,73.725492%,61.176473%);stop-opacity:1;"/>
<stop offset="0.328" style="stop-color:rgb(10.196079%,73.725492%,61.176473%);stop-opacity:1;"/>
<stop offset="0.348" style="stop-color:rgb(10.196079%,73.725492%,61.176473%);stop-opacity:1;"/>
<stop offset="0.504" style="stop-color:rgb(20.392157%,59.607846%,85.882354%);stop-opacity:1;"/>
<stop offset="0.643" style="stop-color:rgb(20.392157%,59.607846%,85.882354%);stop-opacity:1;"/>
<stop offset="0.761" style="stop-color:rgb(10.196079%,73.725492%,61.176473%);stop-opacity:1;"/>
<stop offset="0.841" style="stop-color:rgb(10.196079%,73.725492%,61.176473%);stop-opacity:1;"/>
</radialGradient>
<radialGradient id="radial1" gradientUnits="userSpaceOnUse" cx="55.49242" cy="26.08559" fx="55.49242" fy="26.08559" r="140.369537" gradientTransform="matrix(1.061947,0,0,1.061947,0,0)">
<stop offset="0" style="stop-color:rgb(10.196079%,73.725492%,61.176473%);stop-opacity:1;"/>
<stop offset="0.999" style="stop-color:rgb(10.196079%,73.725492%,61.176473%);stop-opacity:0;"/>
</radialGradient>
</defs>
<g id="surface69605316">
<path style=" stroke:none;fill-rule:nonzero;fill:url(#radial0);" d="M 170.085938 209.949219 L 70.085938 210.046875 C 48.085938 210.066406 30.070312 192.085938 30.046875 170.085938 L 29.949219 70.085938 C 29.929688 48.085938 47.910156 30.070312 69.910156 30.046875 L 169.910156 29.949219 C 191.910156 29.929688 209.925781 47.910156 209.949219 69.910156 L 210.046875 169.910156 C 210.070312 191.914062 192.085938 209.929688 170.085938 209.949219 Z M 170.085938 209.949219 "/>
<path style=" stroke:none;fill-rule:nonzero;fill:url(#radial1);" d="M 170.085938 209.949219 L 70.085938 210.046875 C 48.085938 210.066406 30.070312 192.085938 30.046875 170.085938 L 29.949219 70.085938 C 29.929688 48.085938 47.910156 30.070312 69.910156 30.046875 L 169.910156 29.949219 C 191.910156 29.929688 209.925781 47.910156 209.949219 69.910156 L 210.046875 169.910156 C 210.070312 191.914062 192.085938 209.929688 170.085938 209.949219 Z M 170.085938 209.949219 "/>
<path style=" stroke:none;fill-rule:nonzero;fill:rgb(100%,100%,100%);fill-opacity:1;" d="M 120 155 C 100.703125 155 85 139.300781 85 120 C 85 100.699219 100.703125 85 120 85 C 139.296875 85 155 100.699219 155 120 C 155 139.300781 139.296875 155 120 155 Z M 120 95 C 106.214844 95 95 106.214844 95 120 C 95 133.785156 106.214844 145 120 145 C 133.785156 145 145 133.785156 145 120 C 145 106.214844 133.785156 95 120 95 Z M 120 95 "/>
<path style=" stroke:none;fill-rule:nonzero;fill:rgb(100%,100%,100%);fill-opacity:1;" d="M 165 82.5 C 165 86.640625 161.640625 90 157.5 90 C 153.359375 90 150 86.640625 150 82.5 C 150 78.359375 153.359375 75 157.5 75 C 161.640625 75 165 78.359375 165 82.5 Z M 165 82.5 "/>
<path style=" stroke:none;fill-rule:nonzero;fill:rgb(100%,100%,100%);fill-opacity:1;" d="M 150 185 L 90 185 C 70.703125 185 55 169.300781 55 150 L 55 90 C 55 70.699219 70.703125 55 90 55 L 150 55 C 169.296875 55 185 70.699219 185 90 L 185 150 C 185 169.300781 169.296875 185 150 185 Z M 90 65 C 76.214844 65 65 76.214844 65 90 L 65 150 C 65 163.785156 76.214844 175 90 175 L 150 175 C 163.785156 175 175 163.785156 175 150 L 175 90 C 175 76.214844 163.785156 65 150 65 Z M 90 65 "/>
</g>
</svg>
