<svg id="Layer_2" data-name="Layer 2" xmlns="http://www.w3.org/2000/svg" viewBox="0 0 1131.53 281.74"><defs><style>.cls-1{fill:#fff;}.cls-2{fill:#19736a;}.cls-3{fill:#24b4bc;}.cls-4{fill:#4f8398;}.cls-5{fill:#5a5a5a;}.cls-6{fill:#2cb3a5;}.cls-7{fill:#a4d2a4;}</style></defs><path class="cls-1" d="M87,489.27V494h-18a18.32,18.32,0,0,1-7.71-1.33,8.12,8.12,0,0,1-4.1-4.38,22.41,22.41,0,0,1-1.28-8.43,23,23,0,0,1,1.23-8.34,8,8,0,0,1,4-4.44,17.6,17.6,0,0,1,7.61-1.36q2.34,0,6.43.23c2.74.14,4.72.29,6,.44v22.9Zm-25.25-3.83a5.3,5.3,0,0,0,2.69,2.94,12.08,12.08,0,0,0,5.11.89h6.54V470.8q-4.26-.33-6.76-.33a11.24,11.24,0,0,0-5,.92,5.35,5.35,0,0,0-2.64,2.94,15.27,15.27,0,0,0-.79,5.46A15.59,15.59,0,0,0,61.73,485.44Zm2.37-29.72h4.52v5.38H64.1Zm7.13,0H75.7v5.38H71.23Z" transform="translate(-55.26 -239.13)"/><path class="cls-1" d="M87,489.27h13.3V494H87Z" transform="translate(-55.26 -239.13)"/><path class="cls-1" d="M92.9,489.27h13.3V494H92.9Z" transform="translate(-55.26 -239.13)"/><path class="cls-1" d="M143.16,470A18.08,18.08,0,0,1,146,480.06V494H106.2v-4.71h7.56v-23h5v8.87a53.51,53.51,0,0,1,4.34-5.05,16,16,0,0,1,4.55-3.16,14.05,14.05,0,0,1,6-1.22Q140.37,465.7,143.16,470Zm-24.4,11.78v7.49H141V481a12.91,12.91,0,0,0-2.08-7.51,6.81,6.81,0,0,0-6-3Q125.57,470.42,118.76,481.78ZM129,455.67h4.84v5.43H129Z" transform="translate(-55.26 -239.13)"/><path class="cls-1" d="M157.44,507.62l-1.27-.11v-4.66c1.17.11,2.13.17,2.87.17a4,4,0,0,0,3.62-2,10.7,10.7,0,0,0,1.22-5.6V466.31h5v28q0,6.54-2.18,10a7.27,7.27,0,0,1-6.6,3.47A23.61,23.61,0,0,1,157.44,507.62Z" transform="translate(-55.26 -239.13)"/><path class="cls-1" d="M191.76,489.27V494H181.65V454.5h5.06v34.77Z" transform="translate(-55.26 -239.13)"/><path class="cls-1" d="M225.23,489.27V494h-6a22.33,22.33,0,0,1-5.35-.67,25,25,0,0,1-5.13-1.83,22.81,22.81,0,0,1-5,1.83,21.82,21.82,0,0,1-5.27.67h-6.71v-4.71h6.55a16,16,0,0,0,5.59-1.06,26.79,26.79,0,0,1-6.2-7.18,15.53,15.53,0,0,1-2.42-7.23l-.16-4.22a32.47,32.47,0,0,1,6.67-2.88,23.84,23.84,0,0,1,6.9-1.05,24.31,24.31,0,0,1,6.94,1.05,33.13,33.13,0,0,1,6.78,2.88l-.21,4.22a15.64,15.64,0,0,1-2.42,7.23,26.48,26.48,0,0,1-6.25,7.18,16.44,16.44,0,0,0,5.64,1.06Zm-22.74-9.59a20.21,20.21,0,0,0,6.25,6.2,21.27,21.27,0,0,0,6.33-6.23,13.53,13.53,0,0,0,2.29-7.4,25.15,25.15,0,0,0-8.62-1.83,24.61,24.61,0,0,0-8.52,1.83A13.82,13.82,0,0,0,202.49,479.68Z" transform="translate(-55.26 -239.13)"/><path class="cls-1" d="M236.83,454.5V494h-11.6v-4.71h6.55V454.5Z" transform="translate(-55.26 -239.13)"/><path class="cls-1" d="M250.62,454.5h5V494h-5Z" transform="translate(-55.26 -239.13)"/><path class="cls-1" d="M314.47,489.27V494h-18a18.34,18.34,0,0,1-7.72-1.33,8.1,8.1,0,0,1-4.09-4.38,22.21,22.21,0,0,1-1.28-8.43,23.25,23.25,0,0,1,1.22-8.34,8.09,8.09,0,0,1,4-4.44,17.63,17.63,0,0,1,7.61-1.36q2.34,0,6.44.23t6,.44v22.9Zm-25.25-3.83a5.27,5.27,0,0,0,2.69,2.94,12.06,12.06,0,0,0,5.1.89h6.55V470.8q-4.26-.33-6.76-.33a11.24,11.24,0,0,0-5,.92,5.32,5.32,0,0,0-2.64,2.94,15.25,15.25,0,0,0-.8,5.46A15.56,15.56,0,0,0,289.22,485.44Zm2.37-29.72h4.52v5.38h-4.52Zm7.13,0h4.47v5.38h-4.47Z" transform="translate(-55.26 -239.13)"/><path class="cls-1" d="M314.47,489.27h13.3V494h-13.3Z" transform="translate(-55.26 -239.13)"/><path class="cls-1" d="M320.39,489.27h13.3V494h-13.3Z" transform="translate(-55.26 -239.13)"/><path class="cls-1" d="M375.73,489.27V494h-42v-4.71h4.84V454.5h5.06v22.9a38.49,38.49,0,0,1,6.91-8.59,12.3,12.3,0,0,1,8.41-3.11,11,11,0,0,1,10.43,6.6,17.81,17.81,0,0,1,1.54,7.76v9.21ZM350.9,473.66a26.62,26.62,0,0,0-5.29,7.48q-2,4.25-2,6.52v1.61h22.29v-8.82a12.24,12.24,0,0,0-1.14-5.54,8,8,0,0,0-3-3.38,7.46,7.46,0,0,0-3.91-1.11A9.81,9.81,0,0,0,350.9,473.66Zm.62-18h4.84v5.43h-4.84Z" transform="translate(-55.26 -239.13)"/><path class="cls-1" d="M403.93,466.92V494h-28.2v-4.71h6.91a25.63,25.63,0,0,1-1.22-8.87,22.35,22.35,0,0,1,1.28-8.51,7.85,7.85,0,0,1,4.07-4.3,19.2,19.2,0,0,1,7.79-1.28,65.22,65.22,0,0,1,7.5.39Zm-17,19.33a10.53,10.53,0,0,0,1.23,3h10.69V471.14c-2.2-.19-3.74-.28-4.63-.28a9.92,9.92,0,0,0-4.84.94,5,5,0,0,0-2.29,3.05,21.66,21.66,0,0,0-.64,5.93A23.38,23.38,0,0,0,387,486.25Zm4.21-30.58H396v5.43h-4.84Z" transform="translate(-55.26 -239.13)"/><path class="cls-1" d="M426.22,489.27V494H416.11V454.5h5.06v34.77Z" transform="translate(-55.26 -239.13)"/><path class="cls-1" d="M458.1,489.27V494H426.22v-4.71h21V475.63q0-5.33-5.22-5.32-2.34,0-11,.88l-.16-3.71c1.91-.48,4.07-.9,6.46-1.25a42.68,42.68,0,0,1,5.94-.53,9.55,9.55,0,0,1,6.59,2.14q2.4,2.13,2.4,7.23v14.2Z" transform="translate(-55.26 -239.13)"/><path class="cls-1" d="M495.77,489.27V494h-2.08a3.9,3.9,0,0,1-2-.64,6.26,6.26,0,0,1-1.81-1.63V494H458.1v-4.71h8.62a54.82,54.82,0,0,1-.75-8.93,53.16,53.16,0,0,1,.48-7.07,58.45,58.45,0,0,1,1.06-6,22,22,0,0,1,4-1.11,28.3,28.3,0,0,1,5.45-.5q6.92,0,9.93,3.39t3,11V487a4.74,4.74,0,0,0,1.57,1.64,4.12,4.12,0,0,0,2.26.64Zm-24.56-4c.16,1.65.33,3,.51,4h13.09V480c0-3.4-.69-5.85-2.05-7.35s-3.54-2.24-6.52-2.24a19.51,19.51,0,0,0-4.47.5,61.51,61.51,0,0,0-.8,9.42C471,482,471.05,483.66,471.21,485.3Z" transform="translate(-55.26 -239.13)"/><path class="cls-1" d="M508.75,466.26V494h-13v-4.71h7.93v-23Zm-4.89,32.16h4.84v5.43h-4.84Z" transform="translate(-55.26 -239.13)"/><path class="cls-1" d="M566.86,489.27V494h-18a18.34,18.34,0,0,1-7.72-1.33,8.1,8.1,0,0,1-4.09-4.38,22.21,22.21,0,0,1-1.28-8.43A23.25,23.25,0,0,1,537,471.5a8.09,8.09,0,0,1,4-4.44,17.63,17.63,0,0,1,7.61-1.36q2.34,0,6.44.23t6,.44v22.9Zm-25.25-3.83a5.27,5.27,0,0,0,2.69,2.94,12.06,12.06,0,0,0,5.1.89H556V470.8q-4.26-.33-6.76-.33a11.24,11.24,0,0,0-5,.92,5.32,5.32,0,0,0-2.64,2.94,15.25,15.25,0,0,0-.8,5.46A15.56,15.56,0,0,0,541.61,485.44ZM544,455.72h4.52v5.38H544Zm7.13,0h4.47v5.38h-4.47Z" transform="translate(-55.26 -239.13)"/><path class="cls-1" d="M566.86,489.27h13.3V494h-13.3Z" transform="translate(-55.26 -239.13)"/><path class="cls-1" d="M572.78,489.27h13.3V494h-13.3Z" transform="translate(-55.26 -239.13)"/><path class="cls-1" d="M607,489.27V494H586.08v-4.71H594v-23h5v23Zm-16.33,9.15h4.52v5.32h-4.52Zm7.13,0h4.47v5.32h-4.47Z" transform="translate(-55.26 -239.13)"/><path class="cls-1" d="M627.9,489.27V494H607v-4.71h7.93v-23H620v23ZM615,455.67h4.84v5.43H615Z" transform="translate(-55.26 -239.13)"/><path class="cls-1" d="M661,489.27V494H627.9v-4.71h6.92a25.39,25.39,0,0,1-1.22-8.87,22.58,22.58,0,0,1,1.27-8.51,7.88,7.88,0,0,1,4.07-4.3,19.25,19.25,0,0,1,7.8-1.28,65.22,65.22,0,0,1,7.5.39l1.86.22v22.35Zm-21.82-3a10.83,10.83,0,0,0,1.22,3h10.7V471.14c-2.2-.19-3.74-.28-4.63-.28a9.92,9.92,0,0,0-4.84.94,5,5,0,0,0-2.29,3.05,21.27,21.27,0,0,0-.64,5.93A23.38,23.38,0,0,0,639.13,486.25Zm.37-30.53H644v5.38H639.5Zm7.13,0h4.47v5.38h-4.47Z" transform="translate(-55.26 -239.13)"/><path class="cls-1" d="M681.86,489.27V494H661v-4.71h7.92v-23h5.06v23Zm-16.28-33.55h4.52v5.38h-4.52Zm7.13,0h4.47v5.38h-4.47Z" transform="translate(-55.26 -239.13)"/><path class="cls-1" d="M693.46,454.5V494h-11.6v-4.71h6.54V454.5Z" transform="translate(-55.26 -239.13)"/><path class="cls-1" d="M707.24,454.5h5V494h-5Z" transform="translate(-55.26 -239.13)"/><path class="cls-1" d="M771.09,489.27V494h-18a18.32,18.32,0,0,1-7.71-1.33,8.12,8.12,0,0,1-4.1-4.38,22.41,22.41,0,0,1-1.28-8.43,23,23,0,0,1,1.23-8.34,8,8,0,0,1,4-4.44,17.6,17.6,0,0,1,7.61-1.36q2.34,0,6.43.23c2.74.14,4.72.29,6,.44v22.9Zm-25.25-3.83a5.3,5.3,0,0,0,2.69,2.94,12.08,12.08,0,0,0,5.11.89h6.54V470.8q-4.26-.33-6.76-.33a11.24,11.24,0,0,0-5,.92,5.34,5.34,0,0,0-2.63,2.94,15,15,0,0,0-.8,5.46A15.59,15.59,0,0,0,745.84,485.44Zm2.37-29.72h4.52v5.38h-4.52Zm7.13,0h4.47v5.38h-4.47Z" transform="translate(-55.26 -239.13)"/><path class="cls-1" d="M771.09,489.27h13.3V494h-13.3Z" transform="translate(-55.26 -239.13)"/><path class="cls-1" d="M777,489.27h13.3V494H777Z" transform="translate(-55.26 -239.13)"/><path class="cls-1" d="M811.22,489.27V494H790.31v-4.71h7.93v-23h5.06v23Zm-16.33,9.15h4.52v5.32h-4.52Zm7.13,0h4.47v5.32H802Z" transform="translate(-55.26 -239.13)"/><path class="cls-1" d="M829.21,489.27V494h-18v-4.71h6.55V454.5h5.05v34.77Z" transform="translate(-55.26 -239.13)"/><path class="cls-1" d="M865.5,489.27V494H829.21v-4.71h23.84v-7.71a11.16,11.16,0,0,0-1.23-5.38,4.09,4.09,0,0,0-3.72-2.33H833.73l-3-4.21,2.93-5.93a39,39,0,0,1,2.9-4.8c1.25-1.83,2.51-3.52,3.75-5.07L843.9,456a107.69,107.69,0,0,0-5.65,9.7l-1.75,3.44h12.18c3.37,0,5.78,1.24,7.21,3.72a17.09,17.09,0,0,1,2.16,8.76v7.65Z" transform="translate(-55.26 -239.13)"/><path class="cls-1" d="M877.1,454.5V494H865.5v-4.71H872V454.5Z" transform="translate(-55.26 -239.13)"/><path class="cls-1" d="M890.88,454.5h5V494h-5Z" transform="translate(-55.26 -239.13)"/><path class="cls-1" d="M614.82,390.18c1.15,0,2.32,0,3.5,0,0,1.37,0,2.76,0,4.14-1.16,0-2.32,0-3.47,0C614.83,392.94,614.82,391.56,614.82,390.18Z" transform="translate(-55.26 -239.13)"/><path class="cls-1" d="M845,390.16c1.14,0,2.28,0,3.44,0,0,1.37,0,2.75,0,4.13l-3.44,0C845,392.94,845,391.55,845,390.16Z" transform="translate(-55.26 -239.13)"/><path class="cls-1" d="M581.24,390.16c1.14,0,2.29,0,3.45,0,0,1.39,0,2.77,0,4.17-1.16,0-2.3,0-3.45,0C581.24,392.93,581.23,391.55,581.24,390.16Z" transform="translate(-55.26 -239.13)"/><path class="cls-1" d="M119.47,389.4l3.35,0c0,3.82,0,7.63,0,11.45,3.31-1.38,7.08-2.44,10.61-1.27,3.11,1.15,3.84,4.83,4.13,7.75.29,5.24.06,10.49.13,15.74-1.15,0-2.29,0-3.44.08-.34-6.38.69-12.94-.94-19.17-2.71-3-7.17-1.21-10.51-.41,0,6.51,0,13,0,19.53h-3.37C119.48,411.88,119.44,400.65,119.47,389.4Z" transform="translate(-55.26 -239.13)"/><path class="cls-1" d="M219.1,389.44l3.49,0c0,11.24,0,22.48,0,33.72h-3.51Q219.09,406.28,219.1,389.44Z" transform="translate(-55.26 -239.13)"/><path class="cls-1" d="M504.35,389.44l3.27,0c.06,11.24,0,22.47,0,33.72l-3.32,0C504.36,411.88,504.34,400.66,504.35,389.44Z" transform="translate(-55.26 -239.13)"/><path class="cls-1" d="M55.26,390.47q11.42,0,22.79,0v3.34c-3.2.17-6.41.17-9.61.16,0,9.72,0,19.44,0,29.16H64.84c0-9.71,0-19.43,0-29.14-3.17,0-6.33,0-9.5,0C55.31,392.81,55.29,391.64,55.26,390.47Z" transform="translate(-55.26 -239.13)"/><path class="cls-1" d="M316.39,390.48c1.16,0,2.33,0,3.5,0,2.53,9.77,4.89,19.6,7.31,29.41l2.68.05c2.33-9.84,4.74-19.66,7.31-29.44h3.56c-2.7,10.89-5.56,21.74-8.27,32.64h-8C322,412.2,318.88,401.41,316.39,390.48Z" transform="translate(-55.26 -239.13)"/><path class="cls-1" d="M521,390.47q11.49,0,23,0c0,1.16-.06,2.33-.07,3.5h-9.62c0,9.7,0,19.41,0,29.12-1.16,0-2.29,0-3.42.07q-.09-14.61,0-29.2H521C521,392.81,521,391.64,521,390.47Z" transform="translate(-55.26 -239.13)"/><path class="cls-1" d="M685,392c4.69-3.19,10.78-1.85,16-.91-.06,1-.12,2.07-.16,3.12-4.5-.54-9.63-1.95-13.73.68-3.25,3.52-2.83,8.77-2.94,13.23.14,3.77.1,8.52,3.52,11,4.06,2.21,8.85,1,13.16.38l.16,3.2c-5,.79-10.67,2-15.32-.63-5-3.05-4.76-9.6-5-14.74C680.89,402.12,680.43,395.65,685,392Z" transform="translate(-55.26 -239.13)"/><path class="cls-1" d="M410.1,392.43c1.1,0,2.2,0,3.32,0v7.16h7.23c0,1.05,0,2.1,0,3.17l-7.18,0c.06,4.6-.11,9.22.06,13.82,0,1.46.39,3.44,2.07,3.85a23.46,23.46,0,0,0,5.16-.09l.37,2.86c-2.64.3-5.45,1-8,0-2.33-.88-2.57-3.67-2.84-5.77-.31-4.89-.05-9.79-.14-14.69l-3.31,0c0-.79,0-2.39,0-3.18,1.1,0,2.21,0,3.32,0Z" transform="translate(-55.26 -239.13)"/><path class="cls-1" d="M830.68,392.39l3.36.09c0,2.36,0,4.73,0,7.1l7.24,0c0,1.06,0,2.12,0,3.19H834c.17,5.31-.44,10.69.33,16,1.26,2.88,4.83,1.52,7.24,1.6l-.2,2.58c-2,1.17-4.58.73-6.81.62-2.36-.35-3.56-2.72-3.69-4.88-.48-5.27-.12-10.57-.21-15.86l-3.37-.05c0-1,0-2.08,0-3.11,1.1,0,2.22,0,3.35,0C830.68,397.16,830.67,394.76,830.68,392.39Z" transform="translate(-55.26 -239.13)"/><path class="cls-1" d="M81.45,400c3.58-1.65,8.4-1.3,11.2,1.67,2.52,3.08,2.46,7.31,2.36,11.07-5.1,0-10.22,0-15.33.05.34,2.38.07,5.62,2.67,6.83,3.69,1.67,7.92.64,11.81.47,0,.7,0,2.11,0,2.83-4.34.42-9,1.4-13.18-.15-4.19-1.95-4.81-7.2-4.81-11.28C76.36,407.33,77.15,402,81.45,400Zm.69,3.16c-2.21,1.51-2.1,4.48-2.5,6.85,4,0,8,0,12.06,0-.23-2-.29-4.12-1.21-6C88.53,401.67,84.65,401.59,82.14,403.2Z" transform="translate(-55.26 -239.13)"/><path class="cls-1" d="M147.68,400.8c3.23-1.52,7.19-2.5,10.58-.88,2.65,1.36,3,4.64,3.34,7.29.36,5.3.1,10.61.16,15.93l-3.47-.1c-.16-5.76.31-11.56-.28-17.3a3.72,3.72,0,0,0-3.73-3.37,13,13,0,0,0-7.17,1.69c-.23,6.32,0,12.66-.06,19l-3.6.08c0-7.95,0-15.89,0-23.84A7.18,7.18,0,0,1,147.68,400.8Z" transform="translate(-55.26 -239.13)"/><path class="cls-1" d="M180.51,399.91c3.54-1.52,7.53-.58,11.22-.19,0,.75-.11,2.25-.15,3-3.6-.41-7.4-.85-10.73.92-1.7,4.75-2.29,10.36,0,15,2.83,2.86,7.21,1.57,10.76,1.43,0,1,.06,2,.09,3-4,.43-8.5,1.46-12.18-.73-3.61-2.62-3.63-7.58-3.64-11.61C176.09,406.8,176.61,401.9,180.51,399.91Z" transform="translate(-55.26 -239.13)"/><path class="cls-1" d="M196.4,400.08a38.66,38.66,0,0,1,10.78-.84,5.57,5.57,0,0,1,5,4.71c.69,5-.1,10,.39,15,1.16,1.51,2.92,2.66,2.67,4.87a19.8,19.8,0,0,1-5.84-1.95c-3.35,1.18-7,2.31-10.52,1.37-4.87-1.78-5.36-9.42-1.55-12.51,3.7-1.76,8-1.44,11.92-2-.31-2.13.18-5.26-2.33-6.17-3.5-.66-7.07.09-10.57.31C196.38,401.93,196.39,401,196.4,400.08Zm3.53,12.71c-2.36,1.77-2.09,6.53.76,7.74,2.88.59,5.72-.56,8.46-1.31,0-2.56,0-5.12,0-7.67C206.1,411.93,202.85,411.6,199.93,412.79Z" transform="translate(-55.26 -239.13)"/><path class="cls-1" d="M238.7,400.23a27.84,27.84,0,0,1,10.55-1,5.72,5.72,0,0,1,5.24,4.85c.47,5.21,0,10.45.27,15.69.86.43,1.73.87,2.6,1.33-.08.9-.18,1.83-.25,2.75a25.75,25.75,0,0,1-5.5-2c-3.18,1.16-6.57,2.14-10,1.54-5.54-1.37-6.29-10.46-1.36-13,3.57-1.27,7.44-1.17,11.16-1.69-.31-2.13.13-5.38-2.43-6.19-3.54-.59-7.14.19-10.69.32C238.41,402.19,238.61,400.88,238.7,400.23Zm2.57,12.7c-.43,2.47-1.4,6.12,1.4,7.54,2.9.66,5.8-.45,8.59-1.18,0-2.58.05-5.16.06-7.74A46,46,0,0,0,241.27,412.93Z" transform="translate(-55.26 -239.13)"/><path class="cls-1" d="M265,401c3.08-1.69,6.86-2.52,10.26-1.28,2.68,1.22,3.68,4.37,3.78,7.11.23,5.44,0,10.88.12,16.33h-3.3c-.4-6.44,1.13-13.27-1.26-19.4-2.75-2.75-7.06-.78-10.21.14,0,6.42,0,12.83,0,19.25-1.1,0-2.19,0-3.28,0,0-8,0-15.89,0-23.84C262.59,399.51,264.08,399.72,265,401Z" transform="translate(-55.26 -239.13)"/><path class="cls-1" d="M348.63,399.45c3.7-.71,8.27-.59,10.89,2.55,2.58,3.69,2.55,8.57,2.14,12.89-.25,3.51-2,7.45-5.76,8.32-3.92.77-8.95.87-11.66-2.6-2.35-3.67-2.29-8.27-1.94-12.46C342.65,404.4,344.5,400.15,348.63,399.45Zm-2,5.34c-1.14,3.75-.83,7.82-.46,11.67.73,5.66,10.91,5.67,11.62,0a26.06,26.06,0,0,0-.8-12.85C353.81,401.93,348.8,401.22,346.64,404.79Z" transform="translate(-55.26 -239.13)"/><path class="cls-1" d="M386.36,400.07c4.92-.57,11.45-2.74,15.14,1.73,2,5.18.53,10.92,1,16.35-.27,1.7,1.61,2.27,2.63,3.2-.06.84-.13,1.69-.19,2.54a28.15,28.15,0,0,1-5.52-2c-3.72,1.3-8.18,2.79-11.88.73-3.54-2.82-3.69-9.35.11-12,3.64-1.55,7.73-1.33,11.59-1.89-.23-2.15.17-5.36-2.41-6.2-3.47-.61-7,.11-10.49.37C386.36,402,386.36,401,386.36,400.07Zm2.82,12.84c-.55,2.39-1.57,5.6.9,7.29,2.93,1.28,6.15-.28,9.06-.94,0-2.58,0-5.15,0-7.73A47.33,47.33,0,0,0,389.18,412.91Z" transform="translate(-55.26 -239.13)"/><path class="cls-1" d="M439.39,399.39c4.06-.8,9.36-.23,11.5,3.86a24.73,24.73,0,0,1,.36,15.54c-1.16,3.63-5.33,5-8.81,4.84-3.52.24-7.51-1.35-8.73-4.9a28.12,28.12,0,0,1-.37-13.09A7.66,7.66,0,0,1,439.39,399.39Zm-.52,3.6c-2.47,1.63-2.55,5-2.68,7.7.06,2.87-.12,6.2,1.89,8.53,2.53,2.14,6.1,1.39,8.95.37a14.11,14.11,0,0,0,1.79-7.21c-.06-3.09.28-6.9-2.26-9.16A8.73,8.73,0,0,0,438.87,403Z" transform="translate(-55.26 -239.13)"/><path class="cls-1" d="M461.18,401.08c3.17-1.72,7.09-2.73,10.57-1.33,2.82,1.32,3.67,4.69,3.82,7.55.23,5.27,0,10.54.11,15.82-1.17,0-2.33,0-3.48,0-.07-5.25.24-10.52-.17-15.76-.23-1.72-.4-4-2.33-4.63-3-1-6.08.34-8.94,1.15,0,6.43,0,12.86,0,19.29l-3.34-.09c.08-7.84-.15-15.69.15-23.53h2.8Z" transform="translate(-55.26 -239.13)"/><path class="cls-1" d="M481.58,400.25a27.26,27.26,0,0,1,11.11-.93,6,6,0,0,1,4.92,5.5c.39,5.1-.2,10.23.45,15.31l2.29,1c-.14.93-.27,1.87-.4,2.81a26.47,26.47,0,0,1-5.34-2.1c-3.24,1.21-6.77,2.32-10.24,1.51-5.41-1.55-5.91-10.52-1.05-13,3.55-1.22,7.38-1.15,11.06-1.66a24.81,24.81,0,0,0-1.16-6c-4-.64-8-.12-12,.19C481.32,402.2,481.49,400.9,481.58,400.25Zm3.3,12.68c-1.95,2-1.78,5.89.63,7.47,2.88.86,5.84-.4,8.63-1.09.05-2.59.05-5.17.08-7.75C491.13,412,487.74,411.47,484.88,412.93Z" transform="translate(-55.26 -239.13)"/><path class="cls-1" d="M546.78,402.54a61.07,61.07,0,0,1,8.26-3.6c.05,1.22.09,2.44.13,3.68-2.8.86-5.75,1.55-8.15,3.31-.33,5.69,0,11.41-.11,17.13l-3.55.1c0-7.87,0-15.74,0-23.6l3.55,0C546.89,400.33,546.81,401.8,546.78,402.54Z" transform="translate(-55.26 -239.13)"/><path class="cls-1" d="M558.89,400.21a30.34,30.34,0,0,1,9.59-1.06c2.68,0,5.67,1.65,6.09,4.53.79,5.1-.08,10.3.45,15.43.5,1.07,1.73,1.51,2.6,2.28-.13.84-.25,1.68-.36,2.54a44.24,44.24,0,0,1-5.51-2c-3.72,1.32-8.17,2.79-11.87.69-3.45-2.86-3.63-9.39.19-12,3.68-1.56,7.78-1.31,11.66-1.93a19.87,19.87,0,0,0-1.29-6c-4-.67-8-.14-12,.18C558.55,402.2,558.77,400.87,558.89,400.21Zm2.5,12.79c-.21,2.43-1.42,6.09,1.47,7.4,2.89.88,5.86-.45,8.66-1.13,0-2.58.05-5.15.07-7.72A41.38,41.38,0,0,0,561.39,413Z" transform="translate(-55.26 -239.13)"/><path class="cls-1" d="M594.63,401c3.25-1.62,7.25-2.67,10.72-1.1,2.8,1.35,3.2,4.75,3.46,7.5.33,5.25.09,10.51.16,15.76h-3.35c-.06-5,.12-10,0-14.93-.11-2.12-.53-4.92-2.9-5.62-2.89-.75-5.75.46-8.49,1.23,0,6.44,0,12.88,0,19.32-1.17,0-2.32,0-3.47,0,0-7.85,0-15.69,0-23.54l3.08-.08Z" transform="translate(-55.26 -239.13)"/><path class="cls-1" d="M628.25,401c3.25-1.63,7.24-2.66,10.7-1.11,2.79,1.35,3.26,4.73,3.51,7.49.33,5.25.09,10.53.16,15.78h-3.39c-.36-6.25.87-12.72-.84-18.81-2.38-3.62-7.31-1.39-10.59-.51q0,9.66,0,19.32h-3.46c0-7.83,0-15.68,0-23.51.75,0,2.24-.08,3-.09C627.58,399.88,628,400.59,628.25,401Z" transform="translate(-55.26 -239.13)"/><path class="cls-1" d="M648.41,403.38c1.25-3.21,5-4.52,8.22-4.21a65.4,65.4,0,0,0,11.28.35c0,.78,0,2.34,0,3.12l-4-.15c1.5,3.38,1.74,7.65-.71,10.65-2.55,2.28-6.26,1.79-9.42,1.95-.15,1.4-1.57,3.26.09,4.23,3.79,1.05,8.16-.38,11.63,1.86,3.84,3.44,2.27,11.26-3,12.33-4.44,1.25-9.93,1.48-13.67-1.6a7.69,7.69,0,0,1,1.72-10.4,9.53,9.53,0,0,1,.48-7C647.72,411.84,647.05,407.22,648.41,403.38Zm3.23,6.39c1.1,3.16,5.25,2.69,7.84,2,3-1.61,1.79-5.51,1.76-8.23-2.17-1.15-4.67-2.15-7.11-1.24C651,403.07,650.76,407.24,651.64,409.77Zm.56,20.46a13.9,13.9,0,0,0,10,.13c2.42-1.27,1.56-4.37,1.57-6.58a35.39,35.39,0,0,0-10.35-.95A4.58,4.58,0,0,0,652.2,430.23Z" transform="translate(-55.26 -239.13)"/><path class="cls-1" d="M710.74,399.42c3.52-.65,7.72-.53,10.41,2.19,2.51,2.95,2.63,7.05,2.58,10.74,0,3.15-.44,6.63-2.71,9-2.78,2.71-7.13,2.47-10.67,1.91-3.87-.78-5.91-4.78-6.1-8.42-.25-4-.48-8.41,1.61-12.05A7.23,7.23,0,0,1,710.74,399.42Zm0,3.39c-4.26,2.58-2.71,8.76-2.67,12.95,0,6.12,10.52,6.64,11.7,1a29.18,29.18,0,0,0-.2-11.1C718.64,401.85,713.68,401.68,710.72,402.81Z" transform="translate(-55.26 -239.13)"/><path class="cls-1" d="M732.27,402.68a45,45,0,0,1,8.2-3.75c0,1.23.08,2.47.13,3.71a46.66,46.66,0,0,0-8.19,3.07c-.08,5.81,0,11.61,0,17.41l-3.69-.1c.06-7.83,0-15.65,0-23.46h3.66C732.35,400.33,732.29,401.9,732.27,402.68Z" transform="translate(-55.26 -239.13)"/><path class="cls-1" d="M748.24,400.92c3.29-1.74,7.66-2.8,11-.52,3.45,2.52,3.38,7.25,3.5,11.09-.16,3.6-.21,7.95-3.37,10.35-3.32,2.55-7.8,1.62-11.67,1.54,0,3.39,0,6.78,0,10.17l-3.42.07c0-11.41,0-22.83,0-34.24C745.7,399.54,747.29,399.6,748.24,400.92Zm-.57,3c0,5.4,0,10.8,0,16.19,3.17.26,7,1.33,9.58-1.19,2.28-2.75,2.2-6.59,2-9.95-.29-2.27-.82-5.08-3.08-6.19C753.36,401.58,750.39,403.14,747.67,404Z" transform="translate(-55.26 -239.13)"/><path class="cls-1" d="M772.94,399.55c3.85-.86,8.83-.79,11.42,2.7,2.49,3.66,2.25,8.37,2,12.61-.17,3.69-2.3,7.79-6.25,8.44s-8.86.66-11.34-3c-2.28-3.63-2-8.16-1.75-12.25C767.29,404.48,769.12,400.48,772.94,399.55Zm-1.39,4.25c-1.16,4.6-1.7,9.58-.22,14.17,1.67,3,5.94,3.22,8.78,1.93,2.55-1.18,2.51-4.35,2.74-6.73,0-3.05.15-6.33-1.21-9.11C779,401.26,774.55,402.06,771.55,403.8Z" transform="translate(-55.26 -239.13)"/><path class="cls-1" d="M791.55,399.54l3.53,0c0,1-.05,2-.07,3.07a46.88,46.88,0,0,1,8.26-3.74c0,1.22.1,2.45.16,3.68a60,60,0,0,0-8.14,3c-.31,5.84-.13,11.71-.16,17.56l-3.61,0C791.56,415.24,791.53,407.39,791.55,399.54Z" transform="translate(-55.26 -239.13)"/><path class="cls-1" d="M859.41,399.54c4-.92,9.33-.68,11.73,3.21,2.16,4.49,2,9.79,1.09,14.59a7.24,7.24,0,0,1-5.6,6c-3.92.68-8.9.69-11.45-2.91s-1.76-8.22-1.67-12.29C853.49,404.41,855.61,400.44,859.41,399.54Zm.74,3.15c-2.42.7-2.88,3.5-3.23,5.62-.32,3.39-.42,7,1.13,10.18,1.91,2.55,5.88,2.64,8.56,1.35,2.86-1.64,2.74-5.42,2.82-8.28-.09-2.79.08-6.29-2.26-8.25C865.14,401.91,862.4,402,860.15,402.69Z" transform="translate(-55.26 -239.13)"/><path class="cls-1" d="M881.93,400.87c3.28-1.54,7.22-2.57,10.7-1,2.69,1.49,3.33,4.83,3.55,7.64.2,5.18,0,10.37.09,15.56l-3.49.08c-.35-6.36.84-12.95-.95-19.14-2.61-3.18-7.2-1.06-10.44-.19,0,6.44,0,12.86,0,19.3H878c.06-7.93,0-15.87,0-23.8C879.44,399.54,881,399.63,881.93,400.87Z" transform="translate(-55.26 -239.13)"/><path class="cls-1" d="M103.25,400c3.61-1.68,7.71-.71,11.49-.34-.08,1-.15,2-.21,3-3.81-.19-9.79-1.73-11.44,3-.82,3.93-1.07,8.34.37,12.15,2.35,3.78,7.46,2.38,11.13,2.14.08,1,.16,2,.26,3-4.51.5-10.33,1.9-13.72-2.05C98.91,417.44,98.77,413,99,409,99.52,405.74,100.05,401.75,103.25,400Z" transform="translate(-55.26 -239.13)"/><path class="cls-1" d="M167.54,399.59c1.2,0,2.39,0,3.59-.06,0,7.87,0,15.74,0,23.61l-3.61-.06C167.54,415.25,167.53,407.42,167.54,399.59Z" transform="translate(-55.26 -239.13)"/><path class="cls-1" d="M424.45,399.58l3.43-.09c.06,7.87,0,15.74,0,23.6l-3.46.05C424.45,415.29,424.47,407.43,424.45,399.58Z" transform="translate(-55.26 -239.13)"/><path class="cls-1" d="M581.23,423.14c0-7.89,0-15.77,0-23.65l3.4.07c0,7.85,0,15.7,0,23.55C583.53,423.12,582.38,423.12,581.23,423.14Z" transform="translate(-55.26 -239.13)"/><path class="cls-1" d="M614.83,423.07c0-7.85,0-15.71,0-23.57l3.46.07q0,11.79,0,23.6Z" transform="translate(-55.26 -239.13)"/><path class="cls-1" d="M167.52,390.19c1.19,0,2.39,0,3.59,0,0,1.39,0,2.79,0,4.19l-3.62,0C167.53,392.93,167.52,391.56,167.52,390.19Z" transform="translate(-55.26 -239.13)"/><path class="cls-1" d="M299.29,389.42h3.51c0,11.24,0,22.47,0,33.71h-3.5V421.7c-3.36,1.67-7.53,2.85-11.08,1.05-3-1.75-3.79-5.56-4.07-8.76-.2-4.11,0-8.64,2.43-12.12,3.2-3.6,8.47-2.83,12.74-2.28C299.27,396.19,299.29,392.81,299.29,389.42Zm-9.82,14.48c-1.84,2.35-1.73,5.58-1.8,8.42.22,2.82.21,6.59,3.32,7.84,2.79,1,5.66-.5,8.3-1.34,0-5.38,0-10.76,0-16.13C296,402.46,292.07,401.35,289.47,403.9Z" transform="translate(-55.26 -239.13)"/><path class="cls-1" d="M424.45,390.18h3.46c0,1.38,0,2.76,0,4.16l-3.46,0C424.43,392.93,424.44,391.55,424.45,390.18Z" transform="translate(-55.26 -239.13)"/><path class="cls-1" d="M845.05,423.14c0-7.89-.09-15.77.05-23.65.84,0,2.52.09,3.36.12,0,7.84,0,15.68,0,23.51C847.33,423.12,846.18,423.12,845.05,423.14Z" transform="translate(-55.26 -239.13)"/><path class="cls-1" d="M371,399.67c3.44-1.11,7.15-.39,10.66,0,0,1,0,2,0,3-3.64-.42-7.49-.82-10.86.95-1.55,4.74-2.22,10.23.06,14.86,2.74,3,7.26,1.62,10.82,1.5,0,1,0,2,0,3-4.15.38-9,1.58-12.63-1.19-3.44-3-2.92-7.95-2.95-12C366.09,406,367.06,401.28,371,399.67Z" transform="translate(-55.26 -239.13)"/><path class="cls-1" d="M807,400.27a28.56,28.56,0,0,1,10.08-1.08c2.36.12,5,1.51,5.5,4,1,5.22,0,10.58.59,15.85,1.23,1.44,2.78,2.69,2.7,4.81a25.15,25.15,0,0,1-5.95-1.95c-3.1,1.1-6.38,2.09-9.69,1.56-5.64-1.09-6.44-10.11-1.87-12.94,3.67-1.42,7.7-1.28,11.54-1.83-.31-2.13.1-5.08-2.28-6.12-3.66-.74-7.42.14-11.11.27C806.67,402.22,806.91,400.91,807,400.27Zm2.09,13.48c0,1.84,0,3.68.08,5.53,3.15,2.48,7.16,1,10.58-.06q0-3.84,0-7.67C816.18,411.94,812.19,411.41,809.12,413.75Z" transform="translate(-55.26 -239.13)"/><path class="cls-1" d="M451,353l4.09.06c0,1.49,0,3,0,4.5l-4.11,0C451,356,451,354.48,451,353Z" transform="translate(-55.26 -239.13)"/><path class="cls-1" d="M309.71,315.52H314c0,1.59,0,3.17,0,4.76h-4.29C309.7,318.71,309.7,317.11,309.71,315.52Z" transform="translate(-55.26 -239.13)"/><path class="cls-1" d="M515.07,315.58l4,0c0,1.57,0,3.14,0,4.72l-4,0C515.07,318.73,515.07,317.15,515.07,315.58Z" transform="translate(-55.26 -239.13)"/><path class="cls-1" d="M713.68,315.57l4,.06c0,1.55,0,3.11,0,4.67-1.32,0-2.63,0-3.94,0C713.66,318.73,713.66,317.15,713.68,315.57Z" transform="translate(-55.26 -239.13)"/><path class="cls-1" d="M105.45,315.51l4.22,0c0,1.58,0,3.17,0,4.76h-4.24C105.42,318.71,105.43,317.1,105.45,315.51Z" transform="translate(-55.26 -239.13)"/><path class="cls-1" d="M337.69,320.3q0-2.35,0-4.71c1.28,0,2.56,0,3.86,0,0,1.55,0,3.12,0,4.69Z" transform="translate(-55.26 -239.13)"/><path class="cls-1" d="M508.81,320.34c0-1.59,0-3.17,0-4.76l4.12,0c0,1.54,0,3.09,0,4.64C511.54,320.28,510.17,320.3,508.81,320.34Z" transform="translate(-55.26 -239.13)"/><path class="cls-1" d="M719.93,320.3c0-1.57,0-3.13,0-4.69h3.89v4.7Z" transform="translate(-55.26 -239.13)"/><path class="cls-1" d="M423.28,353c1.43,0,2.85,0,4.3,0,0,1.54,0,3.09,0,4.64-1.45,0-2.88,0-4.31,0C423.27,356.07,423.27,354.52,423.28,353Z" transform="translate(-55.26 -239.13)"/><path class="cls-1" d="M273.88,364.5c1.37,0,2.74,0,4.12,0,0,1.57,0,3.15,0,4.73-1.36,0-2.72,0-4.09,0Z" transform="translate(-55.26 -239.13)"/><path class="cls-1" d="M202.65,314.61q2.26,0,4.53,0,0,17.21,0,34.43c-5.2-.46-11,1.33-15.65-1.55,0,.4.13,1.18.17,1.57H156.28c0-1.37,0-2.73-.05-4.08,5,0,10,0,15,0a53.42,53.42,0,0,1,.62-19.28c5.37-1.52,11.81-2.55,16.61,1,4.19,3.94,2.91,10.16,3.22,15.3-.2,1.62,1.56,2.62,2.92,2.86,2.67.26,5.35.07,8,.1C202.67,334.84,202.64,324.72,202.65,314.61Zm-27,14.15a80.17,80.17,0,0,0-.09,16.17c3.89.06,7.77,0,11.66,0-.26-4.63.81-9.59-1.2-13.93C183.6,327.77,179.15,328.52,175.64,328.76Z" transform="translate(-55.26 -239.13)"/><path class="cls-1" d="M215.56,314.59H220c0,11.49,0,23,0,34.45-1.47,0-2.93,0-4.39,0C215.54,337.56,215.58,326.08,215.56,314.59Z" transform="translate(-55.26 -239.13)"/><path class="cls-1" d="M331.45,315.59h3.92c0,1.57,0,3.16,0,4.75l-3.93,0C331.42,318.73,331.43,317.15,331.45,315.59Z" transform="translate(-55.26 -239.13)"/><path class="cls-1" d="M354.42,315.58c1.36,0,2.73,0,4.11,0,0,1.55,0,3.11,0,4.68h-4.07C354.42,318.73,354.42,317.15,354.42,315.58Z" transform="translate(-55.26 -239.13)"/><path class="cls-1" d="M360.87,315.57h3.92c0,1.57,0,3.15,0,4.72-1.32,0-2.63,0-3.93,0Q360.87,317.94,360.87,315.57Z" transform="translate(-55.26 -239.13)"/><path class="cls-1" d="M374.64,314.59H379q0,17.22,0,34.44c-3.42,0-6.85,0-10.27,0,0-1.37,0-2.73.06-4.08h5.82C374.63,334.85,374.61,324.71,374.64,314.59Z" transform="translate(-55.26 -239.13)"/><path class="cls-1" d="M387.42,314.58h4.52c0,11.48,0,23,0,34.42l-4.52,0Z" transform="translate(-55.26 -239.13)"/><path class="cls-1" d="M529,344.94q0-15.18,0-30.36h4.42q0,15.18,0,30.37h5.73c0,1.35,0,2.71,0,4.07q-7.9,0-15.8,0c0-1.36.07-2.72.1-4.07Z" transform="translate(-55.26 -239.13)"/><path class="cls-1" d="M544.86,314.59h4.48q0,17.22,0,34.44H539.28c0-1.36,0-2.73,0-4.08l5.57,0C544.86,334.85,544.84,324.71,544.86,314.59Z" transform="translate(-55.26 -239.13)"/><path class="cls-1" d="M573.15,315.57l4,0c0,1.57,0,3.15,0,4.74l-4,0C573.07,318.72,573.11,317.14,573.15,315.57Z" transform="translate(-55.26 -239.13)"/><path class="cls-1" d="M628.2,349q0-17.22,0-34.45h4.5q0,15.19,0,30.38c5-.11,10.16.5,15.08-.83-2.59-2.59-5.12-5.37-6.59-8.77-1-2.45-1-5.13-1-7.72,4.74-2.38,10.14-4.18,15.48-3.05a34.45,34.45,0,0,1,8.71,3.12c.49,6.54-3.09,12.31-7.77,16.51a41.65,41.65,0,0,0,10.28.76c0,1.35-.08,2.7-.1,4.06-4.93.17-10,0-14.58-2C644.64,350.34,636.2,348.61,628.2,349Zm16.48-19a14,14,0,0,0,5,10.08c.86.71,1.79,1.81,3.06,1.49a16.29,16.29,0,0,0,7.3-11.5A20.19,20.19,0,0,0,644.68,330.05Z" transform="translate(-55.26 -239.13)"/><path class="cls-1" d="M672.58,345q0-15.19,0-30.4h4.5q0,17.22,0,34.45H666.92c0-1.36.05-2.72.09-4.07Z" transform="translate(-55.26 -239.13)"/><path class="cls-1" d="M685.34,349V314.58h4.43c0,11.49,0,23,0,34.45Z" transform="translate(-55.26 -239.13)"/><path class="cls-1" d="M880.47,314.59c1.48,0,3,0,4.48,0,0,11.47,0,22.93,0,34.41-5.17-.49-10.95,1.39-15.6-1.53,0,.39.13,1.17.19,1.56-9.26,0-18.52,0-27.78,0,0-1.37,0-2.72,0-4.07l7,0c-.49-6.42-.61-12.94.88-19.25,5.39-1.63,12-2.62,16.75,1.06,4.29,4.48,2.75,11.24,3.18,16.85,3.3,2,7.28,1.17,11,1.3C880.44,334.83,880.46,324.71,880.47,314.59Zm-27,14.14a53.65,53.65,0,0,0-.06,16.25c3.85,0,7.71,0,11.57,0-.18-4.47.58-9.11-.9-13.42C861.94,327.76,857,328.5,853.43,328.73Z" transform="translate(-55.26 -239.13)"/><path class="cls-1" d="M893.12,314.61c1.53,0,3.07,0,4.63,0,0,11.48,0,23,0,34.44-1.55,0-3.1,0-4.62,0C893.12,337.54,893.14,326.08,893.12,314.61Z" transform="translate(-55.26 -239.13)"/><path class="cls-1" d="M124.78,324.17c6-1.79,12.83-3.1,18.84-.5a13.09,13.09,0,0,1,7.22,8c1.31,4.3,1,8.85,1,13.29q2.12,0,4.23,0c0,1.34,0,2.7.07,4.06-21.06,0-42.12,0-63.17,0-.4,3.58-1,7.67-4.1,10-4.2,3.16-9.72,1.8-14.57,2.09-5.28.24-11.4.06-15.18-4.19-4.19-4.67-1.86-11.49-1.35-17.05l4.2.8c-.31,4.1-1.78,8.62.08,12.53,2.33,3.91,7.32,4.11,11.36,3.91,3.74-.18,7.62.47,11.24-.64,2.83-1.23,3.52-4.52,3.75-7.27a41.18,41.18,0,0,1-7.39-1.4c.57-1.25,1.16-2.48,1.73-3.72,7.37,1.82,15.08.43,22.59.88,0-6.71,0-13.42,0-20.12h4.47c0,6.7,0,13.41,0,20.12,4.57,0,9.12,0,13.68,0,.11-3.05,0-6.51,2.15-8.92a8.67,8.67,0,0,1,12.23-1.34c3.17,2.35,3.66,6.57,3.56,10.24l6,0c-.18-5.41,1.13-12.3-3.77-16.1-5.43-4.08-12.54-2.38-18.63-1.13C124.85,326.55,124.8,325.36,124.78,324.17Zm5.5,13.24c-2.77,1.45-2.07,4.95-2.28,7.52q4.47.09,8.94,0c-.17-2.19.3-4.72-1.31-6.5C134.46,336.75,132,336.78,130.28,337.41Z" transform="translate(-55.26 -239.13)"/><path class="cls-1" d="M226.59,331.59a8.13,8.13,0,0,1,6.4-7.41c4.3-.74,8.7-.08,12.95.7-.05,7.88.15,15.76-.1,23.63-.4,3.79-.58,8.19-3.56,11-3.72,2.79-8.58,1.37-12.75.67,0-1.3,0-2.6,0-3.89,3.38.22,7.18,1.7,10.32-.15,1.45-2.06,1.38-4.71,1.64-7.1-4.45-.33-10.53,1.37-13.49-3C225.66,341.68,226,336.37,226.59,331.59Zm5.25-1.11c-1.93,4.13-1.42,9,.12,13.24,3,1.48,6.31,1.32,9.52,1.26-.06-5.61.11-11.2-.11-16.8C238.16,328.18,233.84,327.19,231.84,330.48Z" transform="translate(-55.26 -239.13)"/><path class="cls-1" d="M482.43,324.2c4.56-.7,9.92-1,13.36,2.71,4.71,4.74,4.22,11.88,4.14,18,3.9.05,7.8,0,11.7,0q0-10.07,0-20.11c1.47,0,3,0,4.45,0q0,10,0,20.11l7.13,0c0,1.36-.05,2.72-.07,4.09-14.3,0-28.59,0-42.88,0,0-1.37,0-2.73,0-4.09q7.64,0,15.29,0c-.18-5.11.89-11.44-3.59-15.12-2.46-2.47-6.15-1.71-9.29-1.9C482.6,326.68,482.51,325.44,482.43,324.2Z" transform="translate(-55.26 -239.13)"/><path class="cls-1" d="M566.78,329.7c.89-3.19,4.18-4.8,7.25-5.2,4.69-.56,9.42,0,14.1.47,0,6.67,0,13.34,0,20,4.22,0,8.45,0,12.67,0-.62-6.43-.75-13,.87-19.31,4.42-1.23,9.26-2.21,13.71-.5a7.83,7.83,0,0,1,5.35,5.8c1.27,5.93.54,12,.74,18-14.68,0-29.35,0-44,0-3.76,0-8.41-.53-10.26-4.35A23,23,0,0,1,566.78,329.7Zm4.46,1c-1,4-1.8,8.76.64,12.42,3.28,2.67,7.9,1.61,11.81,1.85,0-5.44,0-10.87,0-16.29C579.47,328.66,574.67,327.62,571.24,330.71Zm34.19-2A55,55,0,0,0,605.3,345c3.89,0,7.77,0,11.66,0-.26-4.55.79-9.42-1.13-13.7C613.6,327.76,609,328.55,605.43,328.69Z" transform="translate(-55.26 -239.13)"/><path class="cls-1" d="M707.37,329.55c1-3.33,4.61-4.78,7.79-5.13,4.46-.41,8.93.14,13.39.49.08,6.69,0,13.38,0,20.07,4.29,0,8.58,0,12.87-.06q0-8.81,0-17.63l4.41,0c0,5.9,0,11.82,0,17.72a16.7,16.7,0,0,0,6.65-1c2.26-5.32,1.06-11.2,1.33-16.79l4.42,0c-.07,5.53.35,11.09-.54,16.58a17.38,17.38,0,0,0,8.06,1.06,145.79,145.79,0,0,0-.85-19.93l3.66-.17c1.74,6.57,1.7,13.37,1.58,20.12h11.67c0-5.89,0-11.79,0-17.68l4.47,0c0,5.91,0,11.8,0,17.7,2.61-.06,6.46.54,7.34-2.77,1.39-4.83.36-10,.7-14.95h4.41c-.1,5.53.38,11.11-.55,16.59a17,17,0,0,0,8,1.09,155.83,155.83,0,0,0-.75-19.92l3.65-.19c2.2,7.89,1.32,16.11,1.51,24.18-4.79-.27-9.93.9-14.3-1.61a10.31,10.31,0,0,1-4.74,1.58c-8.07.1-16.16,0-24.23,0-3.87-.07-8,.52-11.48-1.65a9.82,9.82,0,0,1-5.38,1.63q-16.38,0-32.74,0c-3.58-.11-8.07-.49-9.86-4.12A22.06,22.06,0,0,1,707.37,329.55Zm4.9,1c-2.36,4-1.85,9.2.31,13.18,3.7,1.49,7.72,1.34,11.63,1.25,0-5.43,0-10.85,0-16.26C720.25,328.84,715.38,327.38,712.27,330.53Z" transform="translate(-55.26 -239.13)"/><path class="cls-1" d="M820.8,324.81c4.69-1.83,9.9-.68,14.71.06q0,10.06,0,20.1h6.09c0,1.35,0,2.7,0,4.07l-6.06,0c-.52,3.62-.82,7.69-3.61,10.4-3.67,2.87-8.57,1.48-12.73.77,0-1.3,0-2.59,0-3.89,3.2.16,6.65,1.56,9.72.13,2.37-1.66,1.78-4.88,2.05-7.37-4-.28-8.59.81-12.13-1.57-3-3.23-3.36-8.1-3.18-12.32C815.93,331.31,816.73,326.44,820.8,324.81Zm1,5.17c-2.58,4.17-2.09,9.56-.06,13.85,2.9,1.32,6.11,1.21,9.23,1.15,0-5.61.07-11.23-.05-16.84C827.86,328.23,824,327.25,821.78,330Z" transform="translate(-55.26 -239.13)"/><path class="cls-1" d="M309.65,324.87h4.4q0,10,0,20.11,6.49,0,13,0c-1.1-4.67-1.53-9.66-.11-14.29a7.17,7.17,0,0,1,4.71-5c4.68-1.27,9.59-.67,14.35-.27q0,9.78,0,19.55c1.39,0,2.77,0,4.17,0,0,1.35,0,2.7,0,4.06-17.7,0-35.4.06-53.09,0-.32,3.07-.4,6.48-2.67,8.86-2.86,3.47-7.74,3.41-11.83,3.39-5.12-.17-10.54.66-15.34-1.54a10.28,10.28,0,0,1-6.35-9.4,72.89,72.89,0,0,1,1.32-10.39l4.15.8c-.47,3.42-1.27,6.87-.84,10.33.83,3.87,4.83,6.22,8.63,6,4.72-.07,9.52.43,14.2-.38,3.29-.9,4.07-4.54,4.26-7.49a38.19,38.19,0,0,1-7.42-1.45c.66-1.2,1.33-2.37,2-3.54,7.38,1.55,15,.4,22.5.71C309.65,338.25,309.66,331.56,309.65,324.87Zm22.17,5.62a19.93,19.93,0,0,0,.06,14.44c3.2.06,6.4,0,9.6,0,0-5.33,0-10.65,0-16C338.18,328.72,334.68,328.55,331.82,330.49Z" transform="translate(-55.26 -239.13)"/><path class="cls-1" d="M357.28,324.85h4.5c0,6.7,0,13.4,0,20.1,2.28,0,4.58,0,6.87,0q0,2,0,4.08c-6.13,0-12.24,0-18.36,0l0-4.07h7Q357.27,334.91,357.28,324.85Z" transform="translate(-55.26 -239.13)"/><path class="cls-1" d="M435.42,324.87H440c0,6.7,0,13.4,0,20.12h6.83c0,1.35-.06,2.7-.08,4.06-8.77,0-17.54,0-26.3,0-3.59-.22-8.1-.24-10.29-3.63-2.28-4.36-.53-9.36.05-13.93,0-2,2.59-.82,3.83-1.2-.25,3.76-1.56,7.54-.77,11.3.74,2.68,3.81,3.08,6.16,3.31,5.33.26,10.68,0,16,.11Q435.41,334.91,435.42,324.87Z" transform="translate(-55.26 -239.13)"/><path class="cls-1" d="M454,324.85h4.44q0,12.09,0,24.18c-3.86,0-7.7,0-11.56,0,0-1.36,0-2.72.06-4.07,2.34,0,4.7,0,7.05,0C454,338.26,454,331.55,454,324.85Z" transform="translate(-55.26 -239.13)"/><path class="cls-1" d="M470.89,324.92h4.35c0,8.74.06,17.49,0,26.23-.15,3.48-1.2,7.66-4.6,9.32-2.06,1.18-4.5.61-6.73.55,0-1.25,0-2.49-.05-3.72,2.07-.39,4.87,0,6-2.26,1.17-2.51,1-5.42,1.09-8.12C470.88,339.58,470.92,332.25,470.89,324.92Z" transform="translate(-55.26 -239.13)"/><path class="cls-1" d="M457.46,353c1.28,0,2.59,0,3.89,0,0,1.5,0,3,0,4.52h-3.9C457.44,356,457.44,354.49,457.46,353Z" transform="translate(-55.26 -239.13)"/><path class="cls-1" d="M69.69,364.48l3.89,0v4.74H69.66Z" transform="translate(-55.26 -239.13)"/><path class="cls-1" d="M76,364.45c1.3,0,2.59,0,3.88,0v4.71l-3.94,0C75.93,367.62,76,366,76,364.45Z" transform="translate(-55.26 -239.13)"/><path class="cls-1" d="M822.46,311.81c1.4-3,7.3-3.65,7.86.17-1.68.44-4.28-.63-5.18,1.34-.89,1.21.18,2.54.51,3.73l5.47-1.62c.2.8.42,1.61.65,2.42q-5,1.11-10,1.93l-.25-1.79c.46-.1,1.37-.32,1.83-.44C822.4,315.83,821.4,313.73,822.46,311.81Z" transform="translate(-55.26 -239.13)"/><path class="cls-1" d="M579.42,315.58c1.29,0,2.58,0,3.88,0q0,2.33,0,4.68c-1.29,0-2.57,0-3.85,0Q579.41,317.94,579.42,315.58Z" transform="translate(-55.26 -239.13)"/><path class="cls-1" d="M280.33,364.47c1.3,0,2.6,0,3.91,0,0,1.57,0,3.15.05,4.73h-4C280.31,367.62,280.31,366,280.33,364.47Z" transform="translate(-55.26 -239.13)"/><path class="cls-2" d="M1094.25,412.89c7.93,4.59,15.87,9.2,23.93,13.56q1.68,16.55,3.1,33.14a7.9,7.9,0,0,1-5.15,8.74c-3.11,1.31-6.62-.41-8.58-2.89-5.93-7.22-11.8-14.5-17.9-21.57C1090.92,433.52,1092.65,423.21,1094.25,412.89Z" transform="translate(-55.26 -239.13)"/><path class="cls-3" d="M958.37,311.33c-.64-3.93,2.4-7.85,6.19-8.66,3.73-.26,7.43.5,11.15.71,7.48.87,15,.84,22.51,1.95,1.48.11,1.92,1.78,2.64,2.82,3.9,7.35,8,14.58,11.95,21.94q-11.7,3.41-23.37,6.94c-1.46.35-3.27,1-4.45-.3-7.24-6-14.26-12.3-21.51-18.33C961.28,316.52,958.66,314.43,958.37,311.33Z" transform="translate(-55.26 -239.13)"/><path class="cls-4" d="M1140.55,304.33c11.09-.43,22.07-2.42,33.16-2.83,5.22-.51,9.29,5.71,7.24,10.37-.84,2.1-2.63,3.58-4.26,5.05q-11.51,9.87-22.85,19.9c-8.92-2.32-17.75-5-26.63-7.52C1131.55,320.92,1136.13,312.66,1140.55,304.33Z" transform="translate(-55.26 -239.13)"/><path class="cls-5" d="M1182.88,463.39c1.1-.32,2.64-1.12,3.38.25,1.77,2-1.27,3.09-2.61,3.89-34.41,17.62-68.46,36-103.36,52.6.73-7.12,2.25-14.14,3-21.26C1116.44,486.89,1149.71,475.27,1182.88,463.39Z" transform="translate(-55.26 -239.13)"/><path class="cls-5" d="M954.62,462.86A13.25,13.25,0,0,1,959,464c32.64,11.66,65.32,23.15,98,34.84.88,7.15,2.11,14.26,3.2,21.38-31.42-14.88-62.08-31.3-93-47.22-4.44-2.49-9.24-4.37-13.49-7.2A3.71,3.71,0,0,1,954.62,462.86Z" transform="translate(-55.26 -239.13)"/><path class="cls-5" d="M1058.92,385.59l2.74,1a131.16,131.16,0,0,0,2.88,14.7c3.62.46,7.59,1.17,11.07-.21,1.74-4.63,2.16-9.64,3-14.49l2.75-1c1,3.92,2,7.83,3.11,11.71,1.08,3.26.57,6.72.3,10.07-3.47,29.21-6.72,58.46-10.09,87.69-1.55,8.55-.92,17.54-3.78,25.81-.79-.71-2.28-1-2.41-2.19-1.1-5-1.35-10-1.89-15.08-3-25.26-5.72-50.55-8.78-75.81-.6-8.81-2.39-17.51-2.78-26.34C1055.78,396.06,1057.79,390.92,1058.92,385.59Z" transform="translate(-55.26 -239.13)"/><path class="cls-5" d="M1100.08,368.22c4.53,2.7,9.11,5.32,13.62,8,8.42,15.07,17.08,30,25.63,45,.75,1.39,1.39,2.83,2,4.29-.65.21-1.94.62-2.58.84-3.3-1.45-6.19-3.63-9.31-5.39q-15.9-9.6-31.81-19.15c-2.37-1.51-5.3-2.58-6.68-5.2-2.33-4-4.46-8.11-6.76-12.12.52-.37,1.58-1.1,2.11-1.46,4,2.45,7.61,5.62,11.81,7.82l1.63-.05a35.72,35.72,0,0,0,6.2-6.21c1.07-1.29,0-2.9-.66-4.07-2.15-3.34-4.37-6.63-6.6-9.91C1099.15,369.85,1099.61,369,1100.08,368.22Z" transform="translate(-55.26 -239.13)"/><path class="cls-5" d="M1028.39,375.16c3.93-2.33,7.9-4.63,11.87-6.92.4.84.82,1.69,1.25,2.54-2.39,3.76-5.16,7.3-7.25,11.25-1.18,1.66.55,3.11,1.51,4.34a24.39,24.39,0,0,0,4.83,4.47c1.2.62,2.35-.33,3.36-.89,3.3-2.2,6.47-4.59,9.74-6.85l2.41,1.34c-2.58,4.69-5.16,9.38-7.8,14-15.27,9.07-30.42,18.36-45.67,27.47-1.39,1.14-2.81-.07-3.67-1.16q12.33-21.63,24.68-43.26C1025,379.28,1025.93,376.49,1028.39,375.16Z" transform="translate(-55.26 -239.13)"/><path class="cls-5" d="M1101.09,342.45c4.32-1.56,8.81-2.58,13.21-3.95,2.29-.9,4.61.27,6.82.82,16,4.3,32,8.62,48,12.82a28.36,28.36,0,0,1-.08,2.91,22.5,22.5,0,0,1-4.57,1.52c-15.93,4.22-31.82,8.54-47.74,12.76-5.29-.8-10.44-2.72-15.61-4.21.21-.6.64-1.8.84-2.4,4.2-1.06,8.47-1.75,12.7-2.66,1.39-.1,1.92-1.51,2.08-2.7a30.8,30.8,0,0,0-.51-9.57c-4.73-1-9.49-1.85-14.19-3C1101.82,344.23,1101.33,343.05,1101.09,342.45Z" transform="translate(-55.26 -239.13)"/><path class="cls-5" d="M1019.62,339.21c2-.5,4.07-1.55,6.12-.73,4.47,1.33,9,2.46,13.42,3.9-.23.62-.7,1.85-.93,2.46-4.82,1.19-9.8,1.74-14.52,3.33.1,3.69-1.27,8.07.75,11.34,4.38,1.7,9.28,1.86,13.81,3.17.21.64.63,1.91.83,2.55-5,1.42-10,3-15,4.18-17.81-4.64-35.67-9.29-53.37-14.4.41-1.12.23-3,1.8-3.14C988.2,347.55,1003.92,343.45,1019.62,339.21Z" transform="translate(-55.26 -239.13)"/><path class="cls-5" d="M1136.85,282c1.38-.87,3.36-1.61,4.2.37a19.25,19.25,0,0,1-2,4.43c-8.45,14.54-16.6,29.27-25.12,43.77-4,3.71-9.34,5.77-13.94,8.69-.41-.83-.81-1.66-1.2-2.5,2.55-4.2,6-8,7.77-12.6a18.52,18.52,0,0,0-7.72-7.81c-4.47,1.91-8,5.4-12.14,8l-2.48-1.19c2.28-4.24,4.53-8.51,7-12.65.8-1.48,2.31-2.31,3.69-3.18C1108.89,298.93,1122.86,290.44,1136.85,282Z" transform="translate(-55.26 -239.13)"/><path class="cls-5" d="M1000.18,280.86a16,16,0,0,1,4.23,1.75c14.1,8.56,28.27,17,42.4,25.55,1.73.87,2.49,2.7,3.42,4.28,1.92,3.55,3.92,7.05,5.82,10.61l-2.35,1.33c-4-2.58-7.57-5.73-11.77-7.91-3.7.75-6.24,4.61-8.17,7.65,1.76,4.71,5.28,8.47,7.84,12.75q-.74,1.2-1.44,2.4c-3.86-2.31-7.77-4.53-11.64-6.81a7.07,7.07,0,0,1-2.93-3q-13.15-23.12-26.36-46.21Z" transform="translate(-55.26 -239.13)"/><path class="cls-5" d="M1068.76,252c.89,0,1.79,0,2.69-.08,4.12,14.29,7.36,28.83,11.14,43.2.83,4.67,3.47,9.29,2.13,14.11-1.17,4.19-2.3,8.39-3.35,12.6l-2.67-.82c-1-4.81-1.25-9.89-3.1-14.46-3.27-1.67-7.3-.56-10.85-.59a97.74,97.74,0,0,0-3.07,14.88c-.94.34-1.86.69-2.78,1-1-4.43-2.31-8.77-3.47-13.15-.92-2.85.23-5.72.92-8.46C1060.61,284.25,1064.32,268,1068.76,252Z" transform="translate(-55.26 -239.13)"/><path class="cls-6" d="M1022.79,426.29c8-4.58,16-9,23.9-13.65a122.77,122.77,0,0,1,2.23,13.49c.64,5.4,2.11,10.7,2.23,16.16.22,1.59-1.09,2.68-1.93,3.85-5.19,6.14-10.27,12.39-15.37,18.61-1.87,2.38-4.87,4.28-8,3.52-4.4-.84-7-5.67-6.08-9.9C1021.22,447.72,1021.49,437,1022.79,426.29Z" transform="translate(-55.26 -239.13)"/><path class="cls-6" d="M1127.57,378c8.81-2.71,17.67-5.24,26.5-7.86,7.16,6.41,14.59,12.53,21.89,18.79,2.55,2.22,5.9,4.57,5.94,8.32.55,4.82-4.32,9.09-9,8.16-10.6-1-21.22-1.81-31.83-2.69C1136.54,394.45,1131.86,386.32,1127.57,378Z" transform="translate(-55.26 -239.13)"/><path class="cls-6" d="M1019.2,246.67c-.32-4,3.73-7.07,7.46-7a9,9,0,0,1,6.62,3.88c6.32,7.84,12.81,15.55,19.18,23.35,1.49,1.35.37,3.34.07,5-2.28,7.72-4,15.58-6.43,23.26-3-1-5.54-2.89-8.27-4.38-5.3-2.95-10.57-6-15.84-9C1021.23,270,1019.29,258.41,1019.2,246.67Z" transform="translate(-55.26 -239.13)"/><path class="cls-7" d="M963.14,391.52c7.82-6.77,15.59-13.57,23.4-20.35q13.29,3.65,26.53,7.57-6.45,12.5-13.35,24.77c-11.15.93-22.26,2.57-33.46,2.87-4.2.41-7.41-3.64-7.44-7.57C958.77,395.76,961,393.39,963.14,391.52Z" transform="translate(-55.26 -239.13)"/><path class="cls-7" d="M1105.3,243.76c1.84-2.2,4-4.88,7.21-4.61a7.56,7.56,0,0,1,7.59,7.53c0,5.15-1,10.25-1.17,15.39-.22,6.42-.88,12.81-1.59,19.19-5.75,3.34-11.58,6.55-17.25,10a37.75,37.75,0,0,1-6.83,3.31c-1.86-7-3.87-14-5.9-21-.56-2.48-2-5.54,0-7.72Q1096.39,254.84,1105.3,243.76Z" transform="translate(-55.26 -239.13)"/></svg>