<svg xmlns="http://www.w3.org/2000/svg" viewBox="0 0 555.09 670.86"><defs><style>.cls-1{fill:#19736a;}.cls-2{fill:#24b4bc;}.cls-3{fill:#4f8398;}.cls-4{fill:#5a5a5a;}.cls-5{fill:#2cb3a5;}.cls-6{fill:#a4d2a4;}</style></defs><g id="Layer_2" data-name="Layer 2"><path class="cls-1" d="M678.18,458.32c18.89,10.93,37.77,21.9,57,32.29q4,39.38,7.37,78.9a18.77,18.77,0,0,1-12.25,20.81c-7.4,3.12-15.76-1-20.44-6.88-14.11-17.19-28.1-34.51-42.63-51.36C670.25,507.43,674.36,482.9,678.18,458.32Z" transform="translate(-343.46 -44.57)"/><path class="cls-2" d="M354.62,216.49c-1.52-9.35,5.72-18.7,14.75-20.63,8.87-.6,17.69,1.2,26.54,1.7,17.81,2.07,35.83,2,53.6,4.64,3.52.26,4.57,4.23,6.3,6.72,9.29,17.51,19.16,34.71,28.46,52.24q-27.88,8.11-55.67,16.52c-3.48.83-7.77,2.39-10.59-.71-17.24-14.33-34-29.29-51.21-43.66C361.56,228.86,355.32,223.86,354.62,216.49Z" transform="translate(-343.46 -44.57)"/><path class="cls-3" d="M788.42,199.81c26.41-1,52.55-5.75,79-6.72,12.43-1.22,22.13,13.58,17.23,24.67-2,5-6.26,8.53-10.14,12.05q-27.39,23.46-54.39,47.38c-21.26-5.54-42.29-11.9-63.42-17.91C767,239.32,777.89,219.65,788.42,199.81Z" transform="translate(-343.46 -44.57)"/><path class="cls-4" d="M889.22,578.55c2.61-.74,6.28-2.65,8,.61,4.21,4.7-3,7.35-6.21,9.27-81.94,41.94-163,85.65-246.13,125.24,1.75-17,5.37-33.66,7.19-50.63C731,634.52,810.24,606.85,889.22,578.55Z" transform="translate(-343.46 -44.57)"/><path class="cls-4" d="M345.69,577.3c3.64,0,7.06,1.44,10.46,2.61,77.71,27.77,155.54,55.14,233.23,83,2.11,17,5,34,7.63,50.91-74.83-35.42-147.82-74.53-221.42-112.44-10.59-5.93-22-10.41-32.13-17.15C343.4,581.71,343.79,579.08,345.69,577.3Z" transform="translate(-343.46 -44.57)"/><path class="cls-4" d="M594.06,393.32l6.51,2.25a310.93,310.93,0,0,0,6.87,35c8.62,1.11,18,2.79,26.35-.49,4.13-11,5.14-22.95,7.19-34.51l6.56-2.25c2.36,9.31,4.65,18.64,7.38,27.87,2.6,7.78,1.38,16,.73,24-8.26,69.57-16,139.2-24,208.82-3.71,20.36-2.19,41.76-9,61.45-1.88-1.7-5.43-2.29-5.73-5.22-2.63-11.8-3.22-23.91-4.51-35.91-7.23-60.14-13.63-120.36-20.91-180.5-1.42-21-5.69-41.7-6.62-62.73C586.57,418.24,591.36,406,594.06,393.32Z" transform="translate(-343.46 -44.57)"/><path class="cls-4" d="M692.05,352c10.79,6.43,21.7,12.67,32.45,19.17,20,35.89,40.66,71.45,61,107.18,1.79,3.3,3.3,6.74,4.8,10.22-1.54.48-4.61,1.48-6.13,2-7.86-3.44-14.76-8.64-22.19-12.83q-37.83-22.86-75.74-45.59c-5.63-3.6-12.61-6.15-15.89-12.38-5.55-9.52-10.63-19.31-16.11-28.87,1.25-.87,3.76-2.61,5-3.48,9.59,5.85,18.11,13.4,28.11,18.62l3.89-.12a85,85,0,0,0,14.76-14.78c2.55-3.07.08-6.9-1.58-9.69-5.1-8-10.41-15.79-15.71-23.6Q690.38,354.86,692.05,352Z" transform="translate(-343.46 -44.57)"/><path class="cls-4" d="M521.35,368.48c9.37-5.56,18.82-11,28.26-16.49,1,2,2,4,3,6.05-5.69,9-12.29,17.39-17.24,26.8-2.82,4,1.29,7.39,3.58,10.32,3.52,3.83,7,7.9,11.52,10.65,2.85,1.48,5.58-.79,8-2.12,7.86-5.23,15.41-10.94,23.18-16.3,1.44.79,4.31,2.37,5.75,3.18-6.14,11.17-12.29,22.35-18.56,33.44-36.38,21.6-72.45,43.7-108.76,65.4-3.3,2.71-6.68-.16-8.75-2.75q29.37-51.53,58.78-103C513.31,378.28,515.5,371.64,521.35,368.48Z" transform="translate(-343.46 -44.57)"/><path class="cls-4" d="M694.46,290.59c10.3-3.72,21-6.15,31.45-9.41,5.45-2.14,11,.65,16.26,1.94,38.11,10.25,76.19,20.55,114.36,30.55,0,2.29,0,4.62-.2,6.92-3.4,1.8-7.23,2.59-10.89,3.63-37.91,10-75.76,20.32-113.66,30.38-12.61-1.9-24.87-6.48-37.18-10,.5-1.44,1.52-4.29,2-5.73,10-2.51,20.16-4.17,30.24-6.33,3.3-.23,4.58-3.59,5-6.42,1-7.59.14-15.3-1.21-22.79-11.28-2.39-22.61-4.42-33.81-7.07Z" transform="translate(-343.46 -44.57)"/><path class="cls-4" d="M500.46,282.86c4.74-1.17,9.69-3.68,14.59-1.72,10.63,3.16,21.4,5.85,31.94,9.29-.54,1.46-1.66,4.39-2.2,5.85-11.48,2.84-23.34,4.13-34.57,7.92.24,8.8-3,19.23,1.78,27,10.42,4.07,22.08,4.43,32.89,7.57.49,1.52,1.48,4.53,2,6.05-11.86,3.4-23.7,7.09-35.7,10-42.43-11-85-22.12-127.1-34.29,1-2.67.54-7.1,4.29-7.47C425.64,302.74,463.09,293,500.46,282.86Z" transform="translate(-343.46 -44.57)"/><path class="cls-4" d="M779.61,146.67c3.28-2.06,8-3.84,10,.87a45.09,45.09,0,0,1-4.81,10.55C764.68,192.72,745.28,227.8,725,262.32c-9.57,8.84-22.22,13.74-33.2,20.7q-1.46-3-2.85-5.95c6.07-10,14.19-19,18.5-30-4-7.59-10.61-14.75-18.38-18.58-10.65,4.54-19.15,12.86-28.9,19l-5.91-2.84c5.44-10.1,10.78-20.26,16.63-30.12,1.89-3.52,5.49-5.5,8.77-7.57C713,187,746.3,166.75,779.61,146.67Z" transform="translate(-343.46 -44.57)"/><path class="cls-4" d="M454.19,143.94a38.09,38.09,0,0,1,10.06,4.15c33.58,20.39,67.32,40.57,101,60.85,4.11,2.06,5.93,6.44,8.14,10.2,4.57,8.44,9.33,16.78,13.87,25.26l-5.61,3.16c-9.41-6.15-18-13.64-28-18.82-8.8,1.78-14.85,11-19.45,18.21,4.19,11.2,12.57,20.16,18.66,30.35-1.15,1.9-2.3,3.8-3.42,5.72-9.19-5.5-18.5-10.79-27.73-16.21a17,17,0,0,1-7-7.27q-31.34-55.05-62.77-110Z" transform="translate(-343.46 -44.57)"/><path class="cls-4" d="M617.48,75.3c2.12-.08,4.27-.12,6.41-.18,9.8,34,17.51,68.64,26.52,102.87,2,11.11,8.26,22.12,5.06,33.58-2.77,10-5.46,20-8,30-1.58-.49-4.76-1.48-6.36-2-2.41-11.46-3-23.55-7.37-34.44-7.79-4-17.39-1.31-25.85-1.39-3.62,11.51-5.52,23.5-7.3,35.42q-3.35,1.22-6.62,2.49c-2.41-10.55-5.51-20.89-8.26-31.31-2.19-6.79.54-13.63,2.18-20.16C598.06,152,606.91,113.42,617.48,75.3Z" transform="translate(-343.46 -44.57)"/><path class="cls-5" d="M508,490.22c18.93-10.89,38.09-21.38,56.9-32.49a290.64,290.64,0,0,1,5.3,32.1c1.54,12.86,5,25.49,5.31,38.48.52,3.79-2.6,6.4-4.58,9.17-12.37,14.64-24.45,29.52-36.62,44.31-4.45,5.67-11.57,10.21-19,8.38-10.47-2-16.62-13.5-14.48-23.56C504.28,541.25,504.93,515.62,508,490.22Z" transform="translate(-343.46 -44.57)"/><path class="cls-5" d="M757.51,375.16c21-6.45,42.08-12.46,63.11-18.72,17,15.28,34.74,29.84,52.11,44.76,6.07,5.28,14.06,10.87,14.15,19.81,1.31,11.48-10.29,21.64-21.52,19.41-25.24-2.44-50.53-4.31-75.79-6.39C778.87,414.41,767.73,395,757.51,375.16Z" transform="translate(-343.46 -44.57)"/><path class="cls-5" d="M499.47,62.53c-.75-9.51,8.88-16.84,17.77-16.76C523.66,46,529.2,50,533,55c15.06,18.66,30.5,37,45.68,55.6,3.55,3.22.87,8,.17,11.82-5.43,18.38-9.62,37.11-15.33,55.39-7.1-2.33-13.18-6.87-19.67-10.43-12.63-7-25.18-14.23-37.73-21.39C504.3,118.13,499.69,90.48,499.47,62.53Z" transform="translate(-343.46 -44.57)"/><path class="cls-6" d="M366,407.43q27.9-24.17,55.71-48.46,31.67,8.68,63.17,18-15.36,29.75-31.78,59c-26.55,2.23-53,6.13-79.67,6.84-10,1-17.65-8.66-17.73-18C355.57,417.53,360.85,411.88,366,407.43Z" transform="translate(-343.46 -44.57)"/><path class="cls-6" d="M704.48,55.59c4.39-5.23,9.53-11.62,17.18-11,9.7-.47,18.2,8.38,18.08,17.93-.06,12.27-2.37,24.39-2.8,36.64-.52,15.28-2.1,30.5-3.78,45.7-13.7,8-27.59,15.59-41.07,23.91a89.49,89.49,0,0,1-16.28,7.87c-4.43-16.74-9.21-33.38-14-50-1.34-5.92-4.82-13.2.08-18.4Q683.26,82,704.48,55.59Z" transform="translate(-343.46 -44.57)"/></g></svg>