<?xml version="1.0" encoding="utf-8"?>
<!-- Generator: Adobe Illustrator 26.0.1, SVG Export Plug-In . SVG Version: 6.00 Build 0)  -->
<svg version="1.1" id="Layer_1" xmlns="http://www.w3.org/2000/svg" xmlns:xlink="http://www.w3.org/1999/xlink" x="0px" y="0px"
	 viewBox="0 0 660 400" style="enable-background:new 0 0 660 400;" xml:space="preserve">
<style type="text/css">
	.st0{fill:#A8CFF0;}
	.st1{fill:#D4FFED;}
	.st2{fill:#D1EBFF;}
	.st3{opacity:0.5;fill:#FFFFFF;}
	.st4{fill:#FFFFFF;}
	.st5{fill:#72B5E8;}
	.st6{fill:#EB4680;}
	.st7{fill:#D62D69;}
	.st8{opacity:0.7;fill:#FFFFFF;}
	.st9{fill:#3F92D1;}
	.st10{fill:#4F9FDB;}
	.st11{fill:#03336E;}
	.st12{fill:#001A46;}
	.st13{fill:#FFCC00;}
	.st14{fill:#0FBAB8;}
	.st15{fill:#2672AB;}
	.st16{fill:#084C94;}
	.st17{fill:#0BA19F;}
	.st18{fill:#FFD70F;}
	.st19{fill:#D99F00;}
	.st20{fill:#B08100;}
	.st21{fill:#FFDE17;}
	.st22{fill:#3ECFCD;}
	.st23{fill:#F76195;}
	.st24{opacity:0.2;fill:#92B4D1;}
</style>
<g>
	<polygon class="st0" points="660,329.54 660,320.89 660,320.89 	"/>
	<polygon class="st1" points="0,307.61 85.24,258.77 0,210 	"/>
	<polygon class="st1" points="453.56,0 495.22,23.84 536.83,0 	"/>
	<polygon class="st2" points="660,0 660,320.89 660,320.89 660,0 660,0 	"/>
	<polygon class="st1" points="0,307.61 0,400 332.1,400 85.24,258.77 	"/>
	<polygon class="st1" points="536.83,0 495.22,23.84 660,118.17 660,0 	"/>
	<polygon class="st3" points="660,400 660,329.54 660,400 	"/>
	<polygon class="st1" points="0,0 0,210 85.24,258.77 495.22,23.84 453.56,0 	"/>
	<polygon class="st1" points="522.45,400 660,400 660,320.89 	"/>
	<polygon class="st2" points="660,118.17 495.22,23.84 85.24,258.77 332.1,400 522.45,400 660,320.89 	"/>
	<polygon class="st4" points="660,118.17 495.22,23.84 85.24,258.77 332.1,400 522.45,400 660,320.89 	"/>
</g>
<g>
	<g>
		<path class="st4" d="M74.59,335.19c-0.17,0.26-0.46,0.5-0.88,0.72c-0.42,0.22-0.96,0.33-1.62,0.33c-0.85,0-1.55-0.27-2.11-0.81
			c-0.55-0.54-0.83-1.25-0.83-2.11v-1.46c0-0.86,0.26-1.57,0.78-2.11c0.52-0.54,1.18-0.82,2-0.82c0.81,0,1.45,0.2,1.92,0.6
			c0.47,0.4,0.7,0.92,0.71,1.55l-0.01,0.03h-0.92c-0.03-0.41-0.19-0.75-0.47-1.02c-0.29-0.27-0.7-0.4-1.23-0.4
			c-0.54,0-0.98,0.2-1.31,0.61c-0.33,0.41-0.5,0.92-0.5,1.55v1.47c0,0.63,0.19,1.15,0.56,1.56c0.37,0.41,0.84,0.61,1.42,0.61
			c0.4,0,0.73-0.05,0.99-0.16c0.26-0.11,0.44-0.23,0.55-0.37v-1.61h-1.56v-0.76h2.52V335.19z"/>
		<path class="st4" d="M80.72,332.84h-3.26v2.54h3.75v0.76H76.5v-7.11h4.66v0.76h-3.7v2.3h3.26V332.84z"/>
		<path class="st4" d="M87.51,329.78h-2.29v6.35h-0.96v-6.35h-2.28v-0.76h5.53V329.78z"/>
		<path class="st4" d="M95.41,334.35c0-0.32-0.12-0.59-0.37-0.81c-0.24-0.22-0.68-0.4-1.3-0.55c-0.75-0.18-1.34-0.44-1.76-0.79
			c-0.42-0.35-0.63-0.79-0.63-1.32c0-0.55,0.23-1.02,0.68-1.39c0.45-0.37,1.04-0.56,1.76-0.56c0.78,0,1.4,0.21,1.86,0.64
			c0.46,0.43,0.68,0.92,0.67,1.48l-0.01,0.03H95.4c0-0.42-0.14-0.75-0.41-1.01c-0.28-0.26-0.67-0.38-1.18-0.38
			c-0.48,0-0.85,0.11-1.1,0.32c-0.26,0.22-0.38,0.5-0.38,0.85c0,0.31,0.14,0.57,0.42,0.77c0.28,0.21,0.73,0.39,1.35,0.54
			c0.75,0.19,1.32,0.46,1.71,0.82c0.39,0.36,0.59,0.81,0.59,1.34c0,0.57-0.23,1.03-0.7,1.38c-0.47,0.35-1.08,0.52-1.84,0.52
			c-0.71,0-1.34-0.19-1.88-0.58c-0.54-0.39-0.81-0.9-0.79-1.54l0.01-0.03h0.92c0,0.46,0.17,0.8,0.5,1.04
			c0.33,0.24,0.75,0.36,1.25,0.36c0.49,0,0.87-0.1,1.15-0.31C95.27,334.97,95.41,334.7,95.41,334.35z"/>
		<path class="st4" d="M102.84,329.78h-2.29v6.35h-0.96v-6.35h-2.28v-0.76h5.53V329.78z"/>
		<path class="st4" d="M107.46,334.3h-2.98l-0.67,1.83h-0.98l2.75-7.11h0.83l2.71,7.11h-0.98L107.46,334.3z M104.78,333.5h2.39
			l-1.17-3.24h-0.03L104.78,333.5z"/>
		<path class="st4" d="M111.29,333.05v3.08h-0.96v-7.11h2.57c0.78,0,1.37,0.17,1.78,0.52c0.41,0.35,0.62,0.85,0.62,1.5
			c0,0.37-0.1,0.68-0.29,0.95c-0.19,0.27-0.47,0.48-0.83,0.64c0.39,0.13,0.67,0.33,0.84,0.62c0.17,0.29,0.26,0.64,0.26,1.06v0.67
			c0,0.22,0.02,0.42,0.07,0.6c0.05,0.18,0.13,0.32,0.25,0.43v0.12h-0.99c-0.13-0.11-0.21-0.27-0.24-0.49
			c-0.04-0.21-0.05-0.44-0.05-0.66v-0.65c0-0.38-0.11-0.69-0.34-0.93c-0.22-0.23-0.53-0.35-0.9-0.35H111.29z M111.29,332.3h1.51
			c0.54,0,0.93-0.1,1.17-0.31c0.24-0.21,0.36-0.52,0.36-0.94c0-0.4-0.12-0.71-0.35-0.93c-0.23-0.22-0.6-0.33-1.09-0.33h-1.61V332.3z
			"/>
		<path class="st4" d="M121.78,329.78h-2.29v6.35h-0.96v-6.35h-2.28v-0.76h5.53V329.78z"/>
		<path class="st4" d="M127.29,332.84h-3.26v2.54h3.75v0.76h-4.72v-7.11h4.66v0.76h-3.7v2.3h3.26V332.84z"/>
		<path class="st4" d="M129.17,336.14v-7.11h2.18c0.93,0,1.68,0.29,2.24,0.86c0.56,0.57,0.84,1.31,0.84,2.21v0.97
			c0,0.91-0.28,1.65-0.84,2.21c-0.56,0.57-1.31,0.85-2.24,0.85H129.17z M130.13,329.78v5.6h1.22c0.66,0,1.18-0.22,1.56-0.65
			c0.38-0.43,0.57-0.99,0.57-1.66v-0.98c0-0.67-0.19-1.22-0.57-1.65c-0.38-0.43-0.9-0.65-1.56-0.65H130.13z"/>
	</g>
</g>
<g>
	<g>
		<g>
			<path class="st5" d="M62.6,239.19c7.67-4.43,13.89-15.15,13.89-23.95c0-3.26-0.86-5.79-2.33-7.46c4.21,0.3,7.06,3.83,7.06,9.77
				c0,8.8-6.22,19.52-13.89,23.95c-4.82,2.78-9.05,2.4-11.54-0.44C57.8,241.21,60.12,240.62,62.6,239.19z"/>
			<path class="st0" d="M49.34,239.38l-5.61,7.19c0.57,2.17,1.44,4.03,2.54,5.56l6.4-5.45c1.12,1.1,2.46,1.87,3.98,2.27l-1.53,8.22
				c1.9,0.18,3.95-0.02,6.13-0.62l3.44-8.43c0.92-0.37,1.85-0.8,2.81-1.35c0.96-0.55,1.89-1.2,2.81-1.9l3.44,4.45
				c2.18-1.91,4.23-4.09,6.13-6.46l-1.53-6.45c1.52-2.16,2.86-4.47,3.98-6.87l6.4-1.93c1.11-2.82,1.97-5.67,2.54-8.5l-5.61-0.71
				c0.14-1.14,0.24-2.27,0.24-3.37c0-1.1-0.1-2.12-0.24-3.09l5.61-7.19c-0.57-2.17-1.44-4.03-2.54-5.56l-6.4,5.45
				c-1.12-1.1-2.46-1.87-3.98-2.27l1.53-8.22c-1.9-0.18-3.95,0.02-6.13,0.62l-3.44,8.43c-0.92,0.37-1.85,0.8-2.81,1.35
				c-0.96,0.55-1.89,1.2-2.81,1.9L61.24,202c-2.18,1.91-4.23,4.09-6.13,6.46l1.53,6.45c-1.52,2.16-2.86,4.47-3.98,6.87l-6.4,1.93
				c-1.11,2.81-1.97,5.67-2.54,8.5l5.61,0.71c-0.14,1.14-0.24,2.27-0.24,3.37C49.1,237.39,49.2,238.41,49.34,239.38z M53.43,233.59
				c0-8.8,6.22-19.52,13.89-23.95c7.67-4.43,13.89-0.88,13.89,7.92s-6.22,19.52-13.89,23.95S53.43,242.39,53.43,233.59z"/>
			<polygon class="st5" points="64.93,200.12 68.37,191.69 73.75,194.78 70.31,203.21 			"/>
			<path class="st2" d="M70.31,203.21c-0.92,0.37-1.85,0.8-2.81,1.35c-0.96,0.55-1.89,1.2-2.81,1.9L61.24,202l0,0
				c0,0,0.58-0.37,0.88-0.54c0.96-0.55,1.89-0.98,2.81-1.35L70.31,203.21z"/>
			<path class="st2" d="M68.37,191.69c2.18-0.6,4.23-0.79,6.13-0.62l5.38,3.09c-1.9-0.18-3.95,0.02-6.13,0.62L68.37,191.69z"/>
			<path class="st2" d="M49.73,205.37c1.9-2.37,3.95-4.54,6.13-6.46l5.38,3.09c-2.17,1.91-4.23,4.09-6.13,6.46L49.73,205.37z"/>
			<polygon class="st5" points="55.11,208.46 56.65,214.91 51.27,211.82 49.73,205.37 			"/>
			<path class="st5" d="M56.65,214.91c-1.52,2.16-2.86,4.47-3.98,6.87l-5.38-3.09c1.12-2.39,2.46-4.71,3.98-6.87L56.65,214.91z"/>
			<polygon class="st2" points="52.66,221.78 46.27,223.71 40.89,220.62 47.29,218.69 			"/>
			<path class="st5" d="M46.27,223.71c-1.11,2.81-1.97,5.67-2.54,8.5l-5.38-3.09c0.57-2.83,1.44-5.68,2.54-8.5L46.27,223.71z"/>
			<path class="st5" d="M78.35,202.38l0.45-2.39l4.55-3.88l5.38,3.09l-6.4,5.45C81.21,203.55,79.87,202.79,78.35,202.38z"/>
			<path class="st5" d="M43.72,246.57c0.57,2.17,1.44,4.03,2.54,5.56l-5.38-3.09c-1.11-1.54-1.97-3.39-2.54-5.56L43.72,246.57z"/>
			<path class="st5" d="M43.96,236.29c-0.14-0.97-0.24-1.99-0.24-3.09c0-0.32,0.02-0.65,0.04-0.98l5.58,0.71
				c-0.14,1.14-0.24,2.27-0.24,3.37c0,1.1,0.1,2.12,0.24,3.09L43.96,236.29z"/>
			<polygon class="st2" points="49.34,239.38 43.72,246.57 38.35,243.48 43.96,236.29 			"/>
			<path class="st5" d="M52.66,246.68c1.12,1.1,2.46,1.87,3.98,2.27l-1.53,8.22l-5.38-3.09l1.09-5.83L52.66,246.68z"/>
			<path class="st2" d="M85.86,215.95l5.41,3.18l-5.61-0.71C85.76,217.58,85.82,216.76,85.86,215.95z"/>
			<path class="st5" d="M70.31,244.88l3.44,4.45l-5.42-3.08C69,245.82,69.66,245.37,70.31,244.88z"/>
			<g>
				<path class="st4" d="M79,202.76l0.02-0.08c0.26,0.1,0.5,0.22,0.75,0.34C79.51,202.92,79.26,202.82,79,202.76z"/>
				<path class="st4" d="M86.34,218.51L91,219.1c-0.02,0.09-0.04,0.18-0.06,0.27l-4.63-0.59C86.32,218.69,86.32,218.6,86.34,218.51z
					"/>
				<path class="st4" d="M55.41,208.81l1.53,6.45c-1.52,2.16-2.87,4.47-3.98,6.87l-6.4,1.93c-1.07,2.72-1.91,5.49-2.48,8.23
					l-0.63-0.1c0.57-2.83,1.44-5.68,2.54-8.5l6.4-1.93c1.12-2.39,2.46-4.71,3.98-6.87l-1.53-6.45c1.9-2.37,3.95-4.54,6.13-6.46
					l0.21,0.71C59.14,204.52,57.2,206.58,55.41,208.81z"/>
				<path class="st4" d="M67.27,241.4c7.67-4.43,13.89-15.15,13.89-23.95c0-3.89-1.22-6.74-3.24-8.33c2.33,1.5,3.76,4.49,3.76,8.71
					c0,8.8-6.22,19.52-13.89,23.95c-3.87,2.24-7.37,2.43-9.89,0.95c0.19,0.06,0.38,0.09,0.57,0.14
					C60.88,243.73,63.94,243.32,67.27,241.4z"/>
				<path class="st4" d="M55.61,248.67c-0.92-0.33-1.77-0.8-2.53-1.42l0.24-0.2C54,247.72,54.77,248.26,55.61,248.67z"/>
				<path class="st4" d="M82.53,204.8c0.23,0.01,0-0.18-0.24-0.37l6.16-5.25c0.17,0.24,0.33,0.51,0.04,0.54L82.53,204.8z"/>
				<path class="st4" d="M56.8,249.32l-1.47,7.87c0.17-0.01-0.16-0.01-0.49-0.04l1.52-8.14C56.67,249.13,56.98,249.24,56.8,249.32z"
					/>
				<path class="st4" d="M48.83,236.26c0-1.01,0.09-2.05,0.21-3.09l0.56,0.04c-0.14,1.14-0.24,2.27-0.24,3.37
					c0,1.1,0.1,2.12,0.24,3.09l-5.61,7.19c0.48,1.82,1.18,3.42,2.05,4.8L46,252.11c-1.11-1.54-1.97-3.39-2.54-5.56l5.61-7.19
					C48.93,238.38,48.83,237.36,48.83,236.26z"/>
				<path class="st4" d="M73.99,195l-3.44,8.43c-0.92,0.37-1.85,0.8-2.81,1.35c-0.96,0.55-1.89,1.2-2.81,1.9l-0.11-0.53
					c0.79-0.58,1.59-1.14,2.42-1.61c0.96-0.55,1.89-0.98,2.81-1.35l3.44-8.43c2.18-0.6,4.23-0.79,6.13-0.62l-0.07,0.35
					C77.93,194.45,75.79,194.5,73.99,195z"/>
				<path class="st4" d="M70.96,245.25l2.88,3.72c-0.12,0.11-0.24,0.23-0.36,0.33l-2.92-3.77C70.7,245.44,70.83,245.35,70.96,245.25
					z"/>
			</g>
		</g>
		<g>
			<path class="st5" d="M64.59,173.15c11.54-6.66,20.89-22.79,20.89-36.03c0-4.91-1.3-8.71-3.51-11.23
				c6.33,0.46,10.61,5.76,10.61,14.7c0,13.24-9.35,29.37-20.89,36.03c-7.25,4.18-13.61,3.61-17.35-0.67
				C57.37,176.18,60.86,175.3,64.59,173.15z"/>
			<path class="st0" d="M44.65,173.43l-8.44,10.82c0.86,3.26,2.16,6.05,3.83,8.36l9.62-8.2c1.68,1.66,3.7,2.81,5.99,3.41
				l-2.31,12.37c2.85,0.27,5.94-0.03,9.21-0.93l5.18-12.68c1.38-0.55,2.79-1.2,4.23-2.03c1.44-0.83,2.85-1.81,4.23-2.85l5.18,6.7
				c3.27-2.87,6.36-6.15,9.21-9.71l-2.31-9.71c2.29-3.25,4.31-6.73,5.99-10.33l9.62-2.91c1.67-4.23,2.97-8.53,3.83-12.78l-8.44-1.07
				c0.21-1.71,0.36-3.41,0.36-5.06c0-1.66-0.14-3.19-0.36-4.65l8.44-10.82c-0.86-3.26-2.16-6.05-3.83-8.36l-9.62,8.2
				c-1.68-1.66-3.7-2.81-5.99-3.41l2.31-12.37c-2.85-0.27-5.94,0.03-9.21,0.93l-5.18,12.68c-1.38,0.55-2.79,1.2-4.23,2.03
				c-1.44,0.83-2.85,1.81-4.23,2.85l-5.18-6.7c-3.27,2.88-6.36,6.15-9.21,9.71l2.31,9.71c-2.29,3.25-4.31,6.73-5.99,10.33
				l-9.62,2.91c-1.67,4.23-2.97,8.53-3.83,12.78l8.44,1.07c-0.21,1.71-0.36,3.41-0.36,5.06C44.29,170.44,44.43,171.97,44.65,173.43z
				 M50.81,164.72c0-13.24,9.35-29.37,20.89-36.03c11.54-6.66,20.89-1.33,20.89,11.91s-9.35,29.37-20.89,36.03
				C60.16,183.29,50.81,177.95,50.81,164.72z"/>
			<polygon class="st5" points="68.1,114.37 73.28,101.69 81.37,106.34 76.19,119.02 			"/>
			<path class="st2" d="M76.19,119.02c-1.38,0.55-2.79,1.2-4.23,2.03c-1.44,0.83-2.85,1.81-4.23,2.85l-5.18-6.7l0,0
				c0,0,0.88-0.55,1.32-0.81c1.44-0.83,2.85-1.48,4.23-2.03L76.19,119.02z"/>
			<path class="st2" d="M73.28,101.69c3.27-0.9,6.36-1.2,9.21-0.93l8.09,4.65c-2.85-0.27-5.94,0.03-9.21,0.93L73.28,101.69z"/>
			<path class="st2" d="M45.24,122.27c2.85-3.56,5.94-6.84,9.21-9.71l8.09,4.65c-3.27,2.87-6.36,6.15-9.21,9.71L45.24,122.27z"/>
			<polygon class="st5" points="53.33,126.92 55.64,136.63 47.55,131.98 45.24,122.27 			"/>
			<path class="st5" d="M55.64,136.63c-2.29,3.25-4.31,6.73-5.99,10.33l-8.09-4.65c1.68-3.6,3.7-7.08,5.99-10.33L55.64,136.63z"/>
			<polygon class="st2" points="49.65,146.96 40.03,149.87 31.94,145.22 41.56,142.31 			"/>
			<path class="st5" d="M40.03,149.87c-1.67,4.23-2.97,8.53-3.83,12.78L28.11,158c0.86-4.25,2.16-8.55,3.83-12.78L40.03,149.87z"/>
			<path class="st5" d="M88.28,117.78l0.67-3.6l6.85-5.84l8.09,4.65l-9.62,8.2C92.59,119.54,90.57,118.39,88.28,117.78z"/>
			<path class="st5" d="M36.2,184.25c0.86,3.26,2.16,6.05,3.83,8.36l-8.09-4.65c-1.67-2.31-2.97-5.11-3.83-8.36L36.2,184.25z"/>
			<path class="st5" d="M36.56,168.78c-0.21-1.46-0.36-3-0.36-4.65c0-0.49,0.03-0.98,0.06-1.48l8.39,1.06
				c-0.21,1.71-0.36,3.41-0.36,5.06c0,1.66,0.14,3.19,0.36,4.65L36.56,168.78z"/>
			<polygon class="st2" points="44.65,173.43 36.2,184.25 28.11,179.6 36.56,168.78 			"/>
			<path class="st5" d="M49.65,184.41c1.68,1.66,3.7,2.81,5.99,3.41l-2.31,12.37l-8.09-4.65l1.63-8.77L49.65,184.41z"/>
			<path class="st2" d="M99.58,138.18l8.14,4.78l-8.44-1.07C99.43,140.64,99.53,139.41,99.58,138.18z"/>
			<path class="st5" d="M76.19,181.7l5.18,6.7l-8.15-4.64C74.22,183.12,75.22,182.44,76.19,181.7z"/>
			<g>
				<path class="st4" d="M89.27,118.34l0.02-0.12c0.39,0.15,0.75,0.32,1.12,0.51C90.03,118.59,89.66,118.44,89.27,118.34z"/>
				<path class="st4" d="M100.3,142.04l7.01,0.89c-0.03,0.14-0.06,0.27-0.09,0.41l-6.96-0.88
					C100.28,142.31,100.28,142.18,100.3,142.04z"/>
				<path class="st4" d="M53.79,127.45l2.31,9.71c-2.29,3.25-4.31,6.73-5.99,10.33l-9.62,2.91c-1.61,4.1-2.87,8.26-3.73,12.37
					l-0.95-0.16c0.86-4.25,2.16-8.55,3.83-12.78l9.62-2.91c1.68-3.6,3.7-7.08,5.99-10.33l-2.31-9.71c2.85-3.56,5.94-6.84,9.21-9.71
					l0.32,1.07C59.39,120.99,56.48,124.09,53.79,127.45z"/>
				<path class="st4" d="M71.62,176.47c11.54-6.66,20.89-22.79,20.89-36.03c0-5.85-1.83-10.13-4.87-12.54
					c3.51,2.26,5.66,6.76,5.66,13.1c0,13.24-9.35,29.37-20.89,36.03c-5.82,3.36-11.09,3.66-14.88,1.43
					c0.28,0.09,0.57,0.14,0.86,0.21C62.01,179.98,66.61,179.36,71.62,176.47z"/>
				<path class="st4" d="M54.09,187.41c-1.39-0.5-2.66-1.21-3.81-2.13l0.36-0.3C51.66,185.99,52.82,186.78,54.09,187.41z"/>
				<path class="st4" d="M94.57,121.42c0.35,0.01,0-0.27-0.36-0.56l9.26-7.9c0.26,0.36,0.5,0.76,0.06,0.81L94.57,121.42z"/>
				<path class="st4" d="M55.87,188.39l-2.21,11.84c0.26-0.01-0.25-0.02-0.73-0.06l2.28-12.25
					C55.67,188.09,56.14,188.26,55.87,188.39z"/>
				<path class="st4" d="M43.88,168.74c0-1.52,0.13-3.08,0.32-4.65l0.84,0.06c-0.21,1.71-0.36,3.41-0.36,5.06
					c0,1.66,0.14,3.19,0.36,4.65l-8.44,10.82c0.72,2.75,1.78,5.14,3.08,7.22l-0.05,0.67c-1.67-2.31-2.97-5.11-3.83-8.36l8.44-10.82
					C44.03,171.93,43.88,170.4,43.88,168.74z"/>
				<path class="st4" d="M81.73,106.68l-5.18,12.68c-1.38,0.55-2.79,1.2-4.23,2.03c-1.44,0.83-2.85,1.81-4.23,2.85l-0.16-0.8
					c1.19-0.88,2.4-1.71,3.63-2.42c1.44-0.83,2.85-1.48,4.23-2.03l5.18-12.68c3.27-0.9,6.36-1.2,9.21-0.93l-0.1,0.53
					C87.65,105.84,84.44,105.93,81.73,106.68z"/>
				<path class="st4" d="M77.18,182.26l4.33,5.6c-0.18,0.16-0.36,0.34-0.54,0.5l-4.38-5.67C76.78,182.55,76.98,182.41,77.18,182.26z
					"/>
			</g>
		</g>
		<path class="st6" d="M61.5,100.76c-0.06-1.34-0.98-1.92-2.05-1.3c-1.07,0.62-1.89,2.2-1.82,3.54c0.06,1.34,0.98,1.92,2.05,1.3
			C60.75,103.68,61.57,102.1,61.5,100.76z"/>
		<path class="st6" d="M67.49,260.8c-0.04-0.89-0.65-1.28-1.37-0.87c-0.71,0.41-1.25,1.47-1.21,2.36c0.04,0.89,0.65,1.28,1.37,0.87
			C66.99,262.74,67.53,261.69,67.49,260.8z"/>
		<g>
			<path class="st6" d="M28.38,196.09c0.15,0,0.3-0.07,0.39-0.19c0.13-0.16,0.14-0.38,0.04-0.56l-2.4-4.11
				c-0.14-0.24-0.45-0.32-0.68-0.18c-0.24,0.14-0.32,0.45-0.18,0.68l1.75,3l-3.54-1.09c-0.26-0.08-0.54,0.07-0.62,0.33
				c-0.08,0.26,0.07,0.54,0.33,0.62l4.76,1.47C28.28,196.08,28.33,196.09,28.38,196.09z"/>
		</g>
		<g>
			<path class="st7" d="M69.9,214.21c-1.87,1.08-3.52,3.15-4.46,5.38c-0.02,0.04-1.06-0.33-1.48-0.5c-0.92-0.37-2.12-0.23-3.43,0.53
				c-2.92,1.69-5.29,5.77-5.29,9.12c0,6.13,10.49,8.25,10.49,8.25s9.97-13.33,9.97-19.45c0-1.67,0.71-2.19-0.24-2.73
				c-0.08-0.05-1.98-1.06-2.07-1.09C72.46,213.3,71.24,213.44,69.9,214.21z"/>
			<path class="st6" d="M71.67,215.16c-2.04,1.18-3.8,3.52-4.68,5.96c-0.88-1.42-2.65-1.73-4.68-0.55
				c-2.92,1.69-5.29,5.77-5.29,9.12c0,6.13,9.97,7.94,9.97,7.94s9.97-13.33,9.97-19.45C76.96,214.83,74.59,213.48,71.67,215.16z"/>
			<g>
				<path class="st8" d="M71.96,215.29c-2.04,1.18-4.04,3.52-4.92,5.97c-0.18-0.29,0.07-0.18-0.18-0.38
					c0.92-2.33,2.61-4.52,4.55-5.64c1.6-0.92,2.81-1.14,3.76-0.55C74.28,214.42,73.17,214.59,71.96,215.29z"/>
				<path class="st8" d="M62.16,220.55c1.59-0.92,2.84-0.94,3.63-0.45c-0.89-0.27-1.99-0.1-3.2,0.6c-2.92,1.69-5.29,5.77-5.29,9.12
					c0,2.85,2.15,4.76,4.46,6c-2.58-1.21-4.89-2.98-4.89-6.15C56.87,226.32,59.24,222.24,62.16,220.55z"/>
			</g>
		</g>
		<g>
			<path class="st6" d="M26.86,195.41l0.67-0.74c-5.38-4.89-8.23-12.85-8.23-23.03c0-25.34,17.97-56.33,40.05-69.08l-0.5-0.87
				C36.5,114.6,18.3,145.97,18.3,171.63C18.3,182.11,21.26,190.33,26.86,195.41z"/>
		</g>
		<g>
			<g>
				<path class="st0" d="M10.99,178.34C10.99,178.34,11,178.34,10.99,178.34c0.28,0,0.5-0.23,0.5-0.51c0-0.33-0.01-0.66-0.01-0.99
					c0-0.28-0.22-0.5-0.5-0.5c-0.28,0-0.5,0.22-0.5,0.5c0,0.34,0,0.68,0.01,1.01C10.5,178.12,10.72,178.34,10.99,178.34z"/>
			</g>
			<g>
				<path class="st0" d="M38.51,212.99c-0.67,0-1.35-0.03-2.02-0.08c-0.28-0.02-0.48-0.26-0.46-0.54c0.02-0.28,0.26-0.48,0.54-0.46
					c0.64,0.05,1.3,0.08,1.95,0.08c0.28,0,0.5,0.23,0.5,0.5C39.01,212.77,38.79,212.99,38.51,212.99
					C38.51,212.99,38.51,212.99,38.51,212.99z M40.99,212.42c-0.02-0.28,0.18-0.52,0.46-0.54c0.64-0.05,1.29-0.13,1.95-0.22
					c0.27-0.03,0.53,0.15,0.56,0.43c0.04,0.27-0.15,0.53-0.43,0.56c-0.67,0.09-1.34,0.17-2,0.23c-0.01,0-0.03,0-0.04,0
					C41.23,212.88,41.01,212.68,40.99,212.42z M33.49,212.53c-0.67-0.12-1.33-0.27-1.97-0.44c-0.27-0.07-0.43-0.34-0.36-0.61
					c0.07-0.27,0.35-0.43,0.61-0.36c0.62,0.16,1.26,0.3,1.9,0.42c0.27,0.05,0.45,0.31,0.4,0.58c-0.04,0.24-0.25,0.41-0.49,0.41
					C33.55,212.53,33.52,212.53,33.49,212.53z M28.63,211.14c-0.62-0.25-1.25-0.52-1.85-0.82c-0.25-0.12-0.35-0.42-0.23-0.67
					c0.12-0.25,0.42-0.35,0.67-0.23c0.58,0.28,1.17,0.55,1.77,0.79c0.26,0.1,0.38,0.39,0.28,0.65c-0.08,0.2-0.27,0.32-0.46,0.32
					C28.75,211.18,28.69,211.17,28.63,211.14z M24.15,208.82c-0.56-0.37-1.12-0.77-1.64-1.18c-0.22-0.17-0.25-0.49-0.08-0.7
					c0.17-0.22,0.49-0.25,0.7-0.08c0.5,0.4,1.04,0.78,1.58,1.14c0.23,0.15,0.29,0.46,0.14,0.69c-0.1,0.15-0.25,0.22-0.42,0.22
					C24.33,208.9,24.23,208.87,24.15,208.82z M20.23,205.62c-0.47-0.48-0.94-0.97-1.37-1.48c-0.18-0.21-0.16-0.53,0.05-0.71
					c0.21-0.18,0.53-0.15,0.71,0.05c0.42,0.49,0.86,0.97,1.32,1.43c0.2,0.2,0.2,0.51,0,0.71c-0.1,0.1-0.23,0.15-0.35,0.15
					C20.46,205.76,20.33,205.71,20.23,205.62z M17.02,201.73c-0.38-0.55-0.74-1.13-1.08-1.7c-0.14-0.24-0.06-0.54,0.18-0.68
					c0.24-0.14,0.54-0.06,0.68,0.18c0.33,0.56,0.68,1.11,1.05,1.65c0.16,0.23,0.1,0.54-0.13,0.7c-0.09,0.06-0.18,0.09-0.28,0.09
					C17.27,201.94,17.12,201.87,17.02,201.73z M14.53,197.35c-0.28-0.6-0.55-1.21-0.81-1.85c-0.1-0.26,0.02-0.55,0.28-0.65
					c0.26-0.1,0.55,0.02,0.65,0.28c0.25,0.61,0.51,1.21,0.78,1.79c0.12,0.25,0.01,0.55-0.24,0.67c-0.07,0.03-0.14,0.05-0.21,0.05
					C14.79,197.64,14.61,197.53,14.53,197.35z M12.71,192.67c-0.2-0.63-0.38-1.27-0.56-1.93c-0.07-0.27,0.09-0.54,0.36-0.61
					c0.26-0.07,0.54,0.09,0.61,0.36c0.17,0.64,0.35,1.27,0.54,1.88c0.08,0.26-0.06,0.54-0.33,0.63c-0.05,0.02-0.1,0.02-0.15,0.02
					C12.97,193.02,12.77,192.88,12.71,192.67z M11.48,187.8c-0.13-0.65-0.24-1.31-0.34-1.98c-0.04-0.27,0.15-0.53,0.42-0.57
					c0.28-0.04,0.53,0.15,0.57,0.42c0.1,0.66,0.21,1.3,0.34,1.94c0.05,0.27-0.12,0.53-0.4,0.59c-0.03,0.01-0.06,0.01-0.1,0.01
					C11.73,188.21,11.53,188.04,11.48,187.8z M10.76,182.85c-0.06-0.66-0.12-1.32-0.16-2c-0.02-0.28,0.19-0.51,0.47-0.53
					c0.3-0.02,0.51,0.19,0.53,0.47c0.04,0.66,0.09,1.32,0.16,1.96c0.03,0.27-0.18,0.52-0.45,0.55c-0.02,0-0.03,0-0.05,0
					C11.01,183.3,10.79,183.1,10.76,182.85z"/>
			</g>
			<g>
				<path class="st0" d="M46.44,212.11c0.04,0,0.07,0,0.11-0.01c0.33-0.07,0.66-0.15,0.99-0.23c0.27-0.07,0.43-0.34,0.37-0.61
					c-0.07-0.27-0.34-0.43-0.61-0.37c-0.32,0.08-0.64,0.16-0.96,0.23c-0.27,0.06-0.44,0.33-0.38,0.6
					C46.01,211.95,46.21,212.11,46.44,212.11z"/>
			</g>
		</g>
		<g>
			<g>
				<path class="st0" d="M110.48,132.96c0.24,0,0.45-0.17,0.49-0.41c0.06-0.33,0.12-0.66,0.17-0.99c0.05-0.27-0.14-0.53-0.41-0.58
					c-0.27-0.05-0.53,0.14-0.58,0.41c-0.05,0.33-0.11,0.65-0.17,0.98c-0.05,0.27,0.13,0.53,0.4,0.58
					C110.42,132.96,110.45,132.96,110.48,132.96z"/>
			</g>
			<g>
				<path class="st0" d="M18.1,143.09c-0.26-0.1-0.38-0.4-0.28-0.65c0.25-0.63,0.52-1.26,0.78-1.88c0.11-0.25,0.4-0.37,0.66-0.26
					c0.25,0.11,0.37,0.4,0.26,0.66c-0.26,0.62-0.52,1.24-0.77,1.86c-0.08,0.19-0.27,0.31-0.46,0.31
					C18.23,143.12,18.16,143.11,18.1,143.09z M20.09,138.42c-0.25-0.11-0.36-0.41-0.25-0.66c0.28-0.62,0.57-1.23,0.86-1.85
					c0.12-0.25,0.42-0.35,0.67-0.24c0.25,0.12,0.35,0.42,0.24,0.67c-0.29,0.61-0.58,1.22-0.85,1.83c-0.08,0.18-0.27,0.29-0.45,0.29
					C20.23,138.47,20.15,138.45,20.09,138.42z M22.27,133.85c-0.25-0.12-0.34-0.43-0.22-0.67c0.31-0.6,0.62-1.21,0.94-1.81
					c0.13-0.24,0.43-0.34,0.68-0.21c0.24,0.13,0.34,0.43,0.21,0.68c-0.31,0.6-0.62,1.19-0.93,1.79c-0.09,0.17-0.26,0.27-0.45,0.27
					C22.42,133.9,22.34,133.89,22.27,133.85z M24.64,129.37c-0.24-0.14-0.33-0.44-0.19-0.68c0.33-0.59,0.67-1.18,1.01-1.77
					c0.14-0.24,0.45-0.32,0.68-0.18c0.24,0.14,0.32,0.45,0.18,0.68c-0.34,0.58-0.67,1.17-1,1.75c-0.09,0.16-0.26,0.25-0.44,0.25
					C24.8,129.43,24.72,129.41,24.64,129.37z M111.04,128.97c-0.27-0.04-0.47-0.29-0.43-0.56c0.09-0.67,0.17-1.33,0.24-2
					c0.03-0.27,0.28-0.47,0.55-0.44c0.27,0.03,0.47,0.28,0.44,0.55c-0.07,0.67-0.15,1.35-0.24,2.02c-0.03,0.25-0.25,0.43-0.5,0.43
					C111.08,128.97,111.06,128.97,111.04,128.97z M27.19,125c-0.23-0.15-0.31-0.45-0.16-0.69c0.36-0.58,0.72-1.15,1.08-1.72
					c0.15-0.23,0.46-0.3,0.69-0.15c0.23,0.15,0.3,0.46,0.15,0.69c-0.36,0.57-0.72,1.14-1.07,1.71c-0.09,0.15-0.26,0.24-0.43,0.24
					C27.36,125.07,27.27,125.05,27.19,125z M111.57,123.94c-0.28-0.02-0.48-0.26-0.46-0.53c0.05-0.67,0.08-1.34,0.11-2.01
					c0.01-0.27,0.23-0.48,0.5-0.48c0.01,0,0.01,0,0.02,0c0.28,0.01,0.49,0.24,0.48,0.52c-0.03,0.68-0.06,1.36-0.11,2.04
					c-0.02,0.26-0.24,0.47-0.5,0.47C111.6,123.94,111.58,123.94,111.57,123.94z M29.92,120.73c-0.23-0.15-0.29-0.47-0.13-0.69
					c0.38-0.56,0.76-1.12,1.15-1.67c0.16-0.23,0.47-0.28,0.7-0.12c0.23,0.16,0.28,0.47,0.12,0.7c-0.38,0.55-0.76,1.1-1.14,1.66
					c-0.1,0.14-0.25,0.22-0.41,0.22C30.1,120.82,30,120.79,29.92,120.73z M111.27,118.38c0-0.68-0.02-1.35-0.04-2.01
					c-0.01-0.28,0.21-0.51,0.48-0.52c0.01,0,0.01,0,0.02,0c0.27,0,0.49,0.21,0.5,0.48c0.02,0.67,0.04,1.35,0.04,2.04
					c0,0.28-0.22,0.5-0.5,0.5c0,0,0,0,0,0C111.49,118.88,111.27,118.66,111.27,118.38z M32.82,116.59c-0.22-0.16-0.27-0.48-0.11-0.7
					c0.4-0.55,0.81-1.09,1.22-1.62c0.17-0.22,0.48-0.26,0.7-0.09c0.22,0.17,0.26,0.48,0.09,0.7c-0.41,0.53-0.81,1.07-1.21,1.61
					c-0.1,0.13-0.25,0.2-0.4,0.2C33.01,116.68,32.9,116.65,32.82,116.59z M111.05,113.37c-0.06-0.68-0.13-1.34-0.21-2
					c-0.03-0.27,0.16-0.52,0.44-0.56c0.27-0.03,0.52,0.16,0.56,0.43c0.08,0.67,0.15,1.34,0.21,2.03c0.02,0.28-0.18,0.52-0.46,0.54
					c-0.01,0-0.03,0-0.04,0C111.29,113.82,111.07,113.63,111.05,113.37z M35.89,112.57c-0.21-0.17-0.25-0.49-0.08-0.7
					c0.42-0.53,0.85-1.05,1.29-1.57c0.18-0.21,0.5-0.24,0.7-0.06c0.21,0.18,0.24,0.49,0.06,0.7c-0.43,0.51-0.86,1.03-1.28,1.56
					c-0.1,0.12-0.24,0.19-0.39,0.19C36.09,112.68,35.98,112.64,35.89,112.57z M39.13,108.69c-0.21-0.18-0.23-0.5-0.04-0.71
					c0.45-0.51,0.9-1.01,1.36-1.51c0.19-0.2,0.5-0.22,0.71-0.03c0.2,0.19,0.22,0.5,0.03,0.71c-0.45,0.49-0.9,0.99-1.34,1.49
					c-0.1,0.11-0.24,0.17-0.38,0.17C39.34,108.82,39.23,108.77,39.13,108.69z M110.39,108.4c-0.12-0.67-0.26-1.32-0.4-1.96
					c-0.06-0.27,0.11-0.54,0.38-0.6c0.27-0.06,0.54,0.11,0.6,0.38c0.15,0.66,0.29,1.32,0.41,2c0.05,0.27-0.13,0.53-0.4,0.58
					c-0.03,0.01-0.06,0.01-0.09,0.01C110.64,108.81,110.43,108.64,110.39,108.4z M42.55,104.96c-0.2-0.19-0.2-0.51-0.01-0.71
					c0.47-0.49,0.95-0.97,1.43-1.45c0.2-0.19,0.51-0.19,0.71,0c0.19,0.2,0.19,0.51,0,0.71c-0.48,0.47-0.95,0.95-1.42,1.43
					c-0.1,0.1-0.23,0.15-0.36,0.15C42.77,105.1,42.64,105.06,42.55,104.96z M109.22,103.54c-0.2-0.65-0.41-1.28-0.63-1.9
					c-0.09-0.26,0.04-0.55,0.3-0.64c0.25-0.09,0.55,0.04,0.64,0.3c0.23,0.63,0.44,1.28,0.65,1.95c0.08,0.26-0.07,0.54-0.33,0.62
					c-0.05,0.01-0.1,0.02-0.15,0.02C109.48,103.89,109.29,103.75,109.22,103.54z M46.15,101.4c-0.19-0.2-0.18-0.52,0.03-0.71
					c0.5-0.46,1-0.92,1.5-1.37c0.21-0.18,0.52-0.16,0.71,0.04c0.18,0.21,0.17,0.52-0.04,0.71c-0.5,0.45-1,0.9-1.49,1.36
					c-0.1,0.09-0.22,0.13-0.34,0.13C46.38,101.56,46.24,101.51,46.15,101.4z M107.46,98.87c-0.28-0.61-0.58-1.21-0.89-1.78
					c-0.13-0.24-0.04-0.55,0.2-0.68c0.24-0.13,0.55-0.04,0.68,0.2c0.32,0.6,0.62,1.21,0.91,1.84c0.12,0.25,0.01,0.55-0.25,0.66
					c-0.07,0.03-0.14,0.05-0.21,0.05C107.72,99.16,107.54,99.05,107.46,98.87z M49.93,98.03c-0.18-0.21-0.15-0.53,0.06-0.7
					c0.52-0.44,1.05-0.87,1.58-1.29c0.21-0.17,0.53-0.14,0.7,0.08c0.17,0.22,0.14,0.53-0.08,0.7c-0.52,0.42-1.04,0.84-1.56,1.27
					c-0.09,0.08-0.21,0.12-0.32,0.12C50.17,98.21,50.02,98.15,49.93,98.03z M53.89,94.88c-0.16-0.22-0.12-0.54,0.11-0.7
					c0.55-0.4,1.1-0.8,1.65-1.19c0.23-0.16,0.54-0.1,0.7,0.12c0.16,0.23,0.1,0.54-0.12,0.7c-0.55,0.38-1.09,0.78-1.63,1.18
					c-0.09,0.07-0.19,0.1-0.3,0.1C54.14,95.08,53.98,95.01,53.89,94.88z M105.04,94.53c-0.37-0.55-0.77-1.1-1.17-1.61
					c-0.17-0.22-0.13-0.53,0.08-0.7c0.22-0.17,0.53-0.13,0.7,0.08c0.42,0.53,0.82,1.09,1.21,1.67c0.15,0.23,0.09,0.54-0.14,0.69
					c-0.09,0.06-0.18,0.08-0.28,0.08C105.29,94.75,105.13,94.67,105.04,94.53z M58.03,91.98c-0.15-0.23-0.08-0.54,0.15-0.69
					c0.57-0.37,1.15-0.73,1.73-1.08c0.23-0.14,0.54-0.07,0.69,0.17c0.14,0.24,0.07,0.54-0.17,0.69c-0.57,0.35-1.14,0.7-1.71,1.06
					c-0.08,0.05-0.18,0.08-0.27,0.08C58.29,92.21,58.13,92.12,58.03,91.98z M101.91,90.68c-0.46-0.47-0.95-0.92-1.45-1.35
					c-0.21-0.18-0.23-0.5-0.05-0.71c0.18-0.21,0.5-0.23,0.71-0.05c0.52,0.45,1.02,0.92,1.51,1.41c0.19,0.2,0.19,0.51,0,0.71
					c-0.1,0.1-0.22,0.14-0.35,0.14C102.13,90.83,102,90.78,101.91,90.68z M62.37,89.36c-0.13-0.24-0.04-0.55,0.2-0.68
					c0.61-0.33,1.21-0.65,1.81-0.95c0.25-0.13,0.55-0.03,0.67,0.22c0.12,0.25,0.03,0.55-0.22,0.67c-0.59,0.3-1.18,0.61-1.78,0.93
					c-0.08,0.04-0.16,0.06-0.24,0.06C62.63,89.62,62.46,89.53,62.37,89.36z M98.09,87.54c-0.55-0.36-1.12-0.71-1.69-1.02
					c-0.24-0.13-0.33-0.44-0.2-0.68c0.13-0.24,0.44-0.33,0.68-0.2c0.6,0.33,1.2,0.69,1.77,1.07c0.23,0.15,0.29,0.46,0.14,0.69
					c-0.1,0.15-0.25,0.22-0.42,0.22C98.27,87.62,98.17,87.59,98.09,87.54z M66.89,87.08c-0.11-0.25,0-0.55,0.25-0.66
					c0.63-0.28,1.26-0.54,1.88-0.79c0.26-0.1,0.55,0.02,0.65,0.28c0.1,0.26-0.02,0.55-0.28,0.65c-0.61,0.24-1.23,0.5-1.85,0.78
					c-0.07,0.03-0.13,0.04-0.2,0.04C67.15,87.38,66.97,87.27,66.89,87.08z M71.59,85.21c-0.09-0.26,0.06-0.55,0.32-0.63
					c0.66-0.22,1.31-0.42,1.96-0.6c0.27-0.08,0.54,0.08,0.62,0.35c0.07,0.27-0.08,0.54-0.35,0.62c-0.63,0.18-1.27,0.37-1.92,0.59
					c-0.05,0.02-0.1,0.02-0.16,0.02C71.85,85.56,71.66,85.42,71.59,85.21z M93.7,85.26c-0.61-0.24-1.24-0.46-1.87-0.65
					c-0.26-0.08-0.42-0.36-0.33-0.62c0.08-0.26,0.36-0.41,0.62-0.33c0.66,0.2,1.32,0.43,1.95,0.67c0.26,0.1,0.38,0.39,0.28,0.65
					c-0.08,0.2-0.27,0.32-0.47,0.32C93.82,85.29,93.76,85.28,93.7,85.26z M76.46,83.84c-0.05-0.27,0.12-0.53,0.39-0.59
					c0.68-0.14,1.35-0.26,2.02-0.36c0.27-0.04,0.53,0.15,0.57,0.42c0.04,0.27-0.15,0.53-0.42,0.57c-0.65,0.1-1.31,0.21-1.97,0.35
					c-0.03,0.01-0.07,0.01-0.1,0.01C76.71,84.24,76.51,84.08,76.46,83.84z M88.93,83.92c-0.64-0.11-1.31-0.21-1.97-0.27
					c-0.27-0.03-0.47-0.27-0.45-0.55c0.03-0.28,0.28-0.47,0.55-0.45c0.69,0.07,1.37,0.17,2.04,0.28c0.27,0.05,0.45,0.31,0.41,0.58
					c-0.04,0.24-0.25,0.41-0.49,0.41C88.99,83.93,88.96,83.93,88.93,83.92z M81.46,83.1c-0.02-0.28,0.19-0.51,0.47-0.53
					c0.69-0.04,1.38-0.07,2.05-0.07c0.28,0,0.5,0.22,0.5,0.5c0,0.28-0.22,0.5-0.5,0.5c-0.66,0-1.32,0.02-1.99,0.06
					c-0.01,0-0.02,0-0.03,0C81.7,83.57,81.48,83.36,81.46,83.1z"/>
			</g>
			<g>
				<path class="st0" d="M16.81,146.95c0.2,0,0.4-0.13,0.47-0.33l0.35-0.94c0.1-0.26-0.04-0.55-0.29-0.64
					c-0.25-0.1-0.55,0.04-0.64,0.29l-0.35,0.94c-0.09,0.26,0.04,0.55,0.3,0.64C16.7,146.94,16.76,146.95,16.81,146.95z"/>
			</g>
		</g>
		<g>
			<g>
				<path class="st6" d="M34.95,221.55c0.2,0,0.38-0.12,0.46-0.31c0.12-0.31,0.25-0.61,0.38-0.92c0.11-0.25-0.01-0.55-0.27-0.65
					c-0.26-0.11-0.55,0.01-0.65,0.27c-0.13,0.31-0.26,0.62-0.38,0.93c-0.1,0.26,0.02,0.55,0.28,0.65
					C34.82,221.54,34.89,221.55,34.95,221.55z"/>
			</g>
			<g>
				<path class="st6" d="M48.25,267.6c0-0.28,0.22-0.5,0.5-0.5c0.64,0,1.29-0.04,1.93-0.1c0.26-0.02,0.52,0.18,0.54,0.45
					c0.03,0.27-0.18,0.52-0.45,0.54c-0.67,0.06-1.36,0.1-2.02,0.1c0,0,0,0,0,0C48.47,268.1,48.25,267.88,48.25,267.6z M45.72,267.89
					c-0.67-0.1-1.34-0.24-1.99-0.41c-0.27-0.07-0.43-0.35-0.35-0.61c0.07-0.27,0.34-0.42,0.61-0.35c0.61,0.16,1.24,0.29,1.88,0.39
					c0.27,0.04,0.46,0.29,0.42,0.57c-0.04,0.25-0.25,0.43-0.49,0.43C45.77,267.89,45.74,267.89,45.72,267.89z M53.17,267.15
					c-0.06-0.27,0.11-0.54,0.38-0.59c0.62-0.13,1.25-0.29,1.89-0.48c0.26-0.08,0.54,0.08,0.62,0.34c0.08,0.26-0.08,0.54-0.34,0.62
					c-0.66,0.19-1.31,0.36-1.95,0.49c-0.04,0.01-0.07,0.01-0.11,0.01C53.43,267.54,53.22,267.38,53.17,267.15z M40.85,266.43
					c-0.61-0.29-1.21-0.62-1.79-0.98c-0.23-0.15-0.3-0.46-0.15-0.69c0.15-0.23,0.46-0.3,0.69-0.15c0.54,0.34,1.1,0.65,1.68,0.92
					c0.25,0.12,0.36,0.41,0.24,0.66c-0.08,0.18-0.26,0.29-0.45,0.29C40.99,266.47,40.92,266.46,40.85,266.43z M57.93,265.78
					c-0.1-0.26,0.03-0.55,0.28-0.65c0.59-0.23,1.19-0.49,1.8-0.76c0.25-0.11,0.55,0,0.66,0.25c0.11,0.25,0,0.55-0.25,0.66
					c-0.62,0.28-1.24,0.54-1.85,0.79c-0.06,0.02-0.12,0.03-0.18,0.03C58.19,266.09,58,265.97,57.93,265.78z M36.65,263.58
					c-0.49-0.46-0.97-0.95-1.41-1.47c-0.18-0.21-0.16-0.53,0.06-0.7c0.21-0.18,0.52-0.16,0.7,0.06c0.42,0.49,0.87,0.96,1.33,1.39
					c0.2,0.19,0.21,0.5,0.03,0.71c-0.1,0.11-0.23,0.16-0.37,0.16C36.86,263.71,36.74,263.67,36.65,263.58z M33.45,259.64
					c-0.34-0.57-0.67-1.16-0.97-1.78c-0.12-0.25-0.02-0.55,0.23-0.67c0.24-0.12,0.55-0.02,0.67,0.23c0.29,0.59,0.6,1.16,0.93,1.69
					c0.14,0.24,0.07,0.54-0.17,0.69c-0.08,0.05-0.17,0.07-0.26,0.07C33.71,259.88,33.55,259.79,33.45,259.64z M31.32,255.06
					c-0.21-0.62-0.41-1.27-0.58-1.93c-0.07-0.27,0.09-0.54,0.36-0.61c0.27-0.08,0.54,0.09,0.61,0.36c0.17,0.63,0.36,1.26,0.56,1.86
					c0.09,0.26-0.05,0.54-0.31,0.63c-0.05,0.02-0.11,0.03-0.16,0.03C31.59,255.4,31.39,255.27,31.32,255.06z M30.11,250.18
					c-0.11-0.65-0.2-1.31-0.27-1.99c-0.03-0.27,0.17-0.52,0.44-0.55c0.27-0.03,0.52,0.17,0.55,0.44c0.07,0.66,0.16,1.3,0.26,1.93
					c0.05,0.27-0.14,0.53-0.41,0.58c-0.03,0-0.06,0.01-0.08,0.01C30.37,250.6,30.15,250.42,30.11,250.18z M29.64,245.19
					c-0.01-0.46-0.02-0.93-0.02-1.4l0-0.61c0-0.28,0.23-0.46,0.51-0.49c0.28,0,0.5,0.23,0.49,0.51l0,0.59
					c0,0.46,0.01,0.92,0.02,1.37c0.01,0.28-0.21,0.51-0.48,0.52c-0.01,0-0.01,0-0.02,0C29.87,245.67,29.65,245.46,29.64,245.19z
					 M30.22,240.72c-0.28-0.02-0.48-0.26-0.46-0.54c0.05-0.66,0.11-1.32,0.19-1.99c0.03-0.28,0.28-0.47,0.55-0.44
					c0.27,0.03,0.47,0.28,0.44,0.55c-0.07,0.65-0.13,1.31-0.18,1.96c-0.02,0.26-0.24,0.46-0.5,0.46
					C30.24,240.72,30.23,240.72,30.22,240.72z M30.77,235.8c-0.27-0.05-0.46-0.3-0.41-0.58c0.11-0.65,0.23-1.31,0.36-1.96
					c0.05-0.27,0.32-0.45,0.59-0.39c0.27,0.05,0.45,0.32,0.39,0.59c-0.13,0.65-0.25,1.29-0.36,1.93c-0.04,0.24-0.25,0.42-0.49,0.42
					C30.83,235.8,30.8,235.8,30.77,235.8z M31.75,230.94c-0.27-0.07-0.43-0.34-0.36-0.61c0.16-0.64,0.33-1.29,0.51-1.93
					c0.08-0.27,0.35-0.42,0.62-0.35c0.27,0.08,0.42,0.35,0.35,0.62c-0.18,0.63-0.35,1.27-0.51,1.9c-0.06,0.23-0.26,0.38-0.49,0.38
					C31.83,230.96,31.79,230.95,31.75,230.94z M33.09,226.17c-0.26-0.09-0.41-0.37-0.32-0.63c0.21-0.63,0.42-1.26,0.65-1.89
					c0.09-0.26,0.38-0.39,0.64-0.3c0.26,0.09,0.39,0.38,0.3,0.64c-0.22,0.62-0.44,1.24-0.64,1.86c-0.07,0.21-0.26,0.34-0.47,0.34
					C33.2,226.2,33.14,226.19,33.09,226.17z"/>
			</g>
			<g>
				<path class="st6" d="M62.9,263.97c0.08,0,0.16-0.02,0.24-0.06c0.29-0.16,0.59-0.33,0.88-0.5c0.24-0.14,0.32-0.44,0.18-0.68
					c-0.14-0.24-0.44-0.32-0.68-0.18c-0.29,0.17-0.58,0.33-0.86,0.49c-0.24,0.13-0.33,0.44-0.2,0.68
					C62.55,263.88,62.72,263.97,62.9,263.97z"/>
			</g>
		</g>
		<g>
			<path class="st6" d="M36.13,222.04c0.01,0,0.02,0,0.03,0c0.28-0.02,0.49-0.25,0.47-0.53l-0.17-2.67
				c-0.01-0.18-0.12-0.34-0.29-0.42c-0.17-0.08-0.36-0.06-0.51,0.05l-2.25,1.67c-0.22,0.16-0.27,0.48-0.1,0.7
				c0.16,0.22,0.48,0.27,0.7,0.1l1.51-1.12l0.11,1.75C35.65,221.84,35.87,222.04,36.13,222.04z"/>
		</g>
	</g>
	<path class="st4" d="M217.61,133.42c0.02-3.28,4.64-5.95,10.33-5.96c5.69-0.01,10.28,2.64,10.26,5.93c-0.02,3-3.89,5.49-8.91,5.9
		l-0.01,1.66c0.95,0.15,1.65,0.64,1.65,1.24l-0.03,5.68c0,0.71-1.01,1.29-2.24,1.29l-1.69,0c-1.23,0-2.23-0.57-2.22-1.28l0.03-5.68
		c0-0.6,0.71-1.09,1.66-1.24l0.01-1.66C221.44,138.9,217.59,136.43,217.61,133.42z"/>
	<g>
		<path class="st2" d="M92.97,365.83l178.77-103.27c6.92-4,12.53-14.72,12.53-23.94V75.99c0-9.23-5.61-13.47-12.53-9.47
			L92.97,169.79c-6.92,4-12.53,14.72-12.53,23.94v162.62C80.44,365.58,86.05,369.82,92.97,365.83z"/>
		<path class="st9" d="M88.02,167.23L266.78,63.96c2.74-1.58,5.27-1.87,7.33-1.08c0.26,0.1,5.16,2.63,5.41,2.77
			c0.01,0,0.01,0.01,0.01,0.01c-2.14-1.04-4.84-0.84-7.8,0.86L92.97,169.79c-6.92,4-12.53,14.72-12.53,23.94v162.62
			c0,5.76,2.19,9.57,5.51,10.66c-0.27,0.01-0.61-0.09-1.1-0.37c-0.16-0.09-5.35-2.9-5.51-3.01c-2.38-1.67-3.86-5.09-3.86-9.84
			V191.17C75.49,181.94,81.1,171.22,88.02,167.23z"/>
		<path class="st10" d="M89.42,167.9L268.19,64.63c2.74-1.58,5.27-1.87,7.33-1.08c0.26,0.1,3.76,1.96,4,2.09
			c0.01,0,0.01,0.01,0.01,0.01c-2.14-1.04-4.84-0.84-7.8,0.86L92.97,169.79L89.42,167.9z"/>
		<path class="st4" d="M92.37,169.49L271.14,66.22c2.84-1.64,5.45-1.87,7.55-0.96c-1.79-0.28-3.85,0.15-6.04,1.42L93.88,169.94
			c-6.92,4-12.53,14.72-12.53,23.94V356.5c0,5.44,1.96,9.13,4.98,10.44c-3.87-0.61-6.49-4.58-6.49-10.89V193.43
			C79.84,184.2,85.45,173.48,92.37,169.49z"/>
		<path class="st11" d="M277.23,90.45v148.16c0,7.24-3.44,14.31-9.01,17.85L91.36,358.62c-0.07,0.04-0.17,0.1-0.29,0.17
			c-1.6,0.91-3.59-0.24-3.59-2.08V200.07L277.23,90.45z"/>
		<path class="st12" d="M87.73,357.45c0.13-0.07,0.23-0.13,0.29-0.17l176.86-102.16c5.57-3.54,9.01-10.61,9.01-17.85V92.37
			l3.33-1.93v148.16c0,7.24-3.44,14.31-9.01,17.85L91.36,358.62c-0.07,0.04-0.17,0.1-0.29,0.17c-1.35,0.77-2.97,0.06-3.44-1.29
			C87.66,357.48,87.7,357.47,87.73,357.45z"/>
		<g>
			<path class="st13" d="M97.43,182.28c0,2.19-1.54,4.85-3.45,5.95c-1.9,1.1-3.45,0.22-3.45-1.97c0-2.19,1.54-4.85,3.45-5.95
				C95.89,179.21,97.43,180.09,97.43,182.28z"/>
			<path class="st6" d="M106.33,177.11c0,2.19-1.54,4.85-3.45,5.95c-1.9,1.1-3.45,0.22-3.45-1.97c0-2.19,1.54-4.85,3.45-5.95
				C104.79,174.04,106.33,174.92,106.33,177.11z"/>
			<path class="st14" d="M115.23,171.94c0,2.19-1.54,4.85-3.45,5.95c-1.9,1.1-3.45,0.22-3.45-1.97s1.54-4.85,3.45-5.95
				C113.68,168.88,115.23,169.76,115.23,171.94z"/>
		</g>
	</g>
	<path class="st5" d="M158.22,171.1c0,1.5,1.06,2.11,2.37,1.35l12.97-7.49c1.31-0.76,2.37-2.59,2.37-4.09c0-1.5-1.06-2.11-2.37-1.35
		L160.59,167C159.28,167.76,158.22,169.59,158.22,171.1z M136.86,183.42c0,1.5,1.06,2.11,2.37,1.35l12.97-7.49
		c1.31-0.76,2.37-2.59,2.37-4.09c0-1.5-1.06-2.11-2.37-1.35l-12.97,7.49C137.92,180.09,136.86,181.92,136.86,183.42z M115.5,195.75
		c0,1.5,1.06,2.11,2.37,1.35l12.97-7.49c1.31-0.76,2.37-2.59,2.37-4.09c0-1.5-1.06-2.11-2.37-1.35l-12.97,7.49
		C116.57,192.42,115.5,194.25,115.5,195.75z M94.15,208.08c0,1.5,1.06,2.11,2.37,1.35l12.97-7.49c1.31-0.76,2.37-2.59,2.37-4.09
		c0-1.5-1.06-2.11-2.37-1.35l-12.97,7.49C95.21,204.75,94.15,206.58,94.15,208.08z"/>
	<g>
		<g>
			<polygon class="st15" points="212.06,177.71 212.06,233.53 205.95,229.96 205.95,173.97 			"/>
			<polygon class="st9" points="212.03,177.71 212.03,233.53 333.83,163.68 333.83,107.7 			"/>
			<polygon class="st5" points="333.83,107.7 212.03,177.71 205.95,173.97 327.79,104.03 			"/>
			<polygon class="st8" points="333.83,107.7 212.03,177.71 205.95,173.97 212.05,176.86 			"/>
		</g>
		<g>
			<polygon class="st4" points="229.87,213.28 229.87,210.91 268.31,189.06 268.31,191.43 			"/>
			<polygon class="st4" points="284.96,144.97 284.96,147.34 220.35,184.31 220.35,181.94 			"/>
			<polygon class="st4" points="262.21,177.81 284.96,164.67 284.96,167.04 262.21,180.18 			"/>
			<polygon class="st4" points="246.81,196.55 246.81,198.92 237.41,204 237.41,201.63 			"/>
			<polygon class="st4" points="248.27,176.01 284.96,154.82 284.96,157.19 248.27,178.38 			"/>
			<polygon class="st4" points="271.52,167.51 284.96,159.75 284.96,162.12 271.52,169.88 			"/>
			<polygon class="st4" points="274.94,182.68 249.15,197.57 249.15,195.2 274.94,180.31 			"/>
			<polygon class="st4" points="269.19,168.86 269.19,171.23 232.98,191.79 232.98,189.42 			"/>
			<polygon class="st4" points="259.87,179.16 259.87,181.53 241.77,191.98 241.77,189.61 			"/>
			<polygon class="st4" points="277.27,178.96 284.96,174.53 284.96,176.9 277.27,181.33 			"/>
			<polygon class="st4" points="245.94,179.72 220.35,194.16 220.35,191.79 245.94,177.35 			"/>
			<polygon class="st4" points="230.64,193.14 220.35,199.08 220.35,196.71 230.64,190.77 			"/>
			<polygon class="st4" points="284.96,152.27 220.35,189.23 220.35,186.86 284.96,149.9 			"/>
			<polygon class="st4" points="239.44,193.33 220.35,204.01 220.35,201.64 239.44,190.96 			"/>
			<polygon class="st4" points="270.65,187.71 284.96,179.45 284.96,181.82 270.65,190.08 			"/>
			<polygon class="st4" points="227.54,214.63 220.35,218.78 220.35,216.41 227.54,212.26 			"/>
			<polygon class="st4" points="235.08,205.35 220.35,213.86 220.35,211.49 235.08,202.98 			"/>
			<polygon class="st4" points="284.96,171.97 220.35,208.93 220.35,206.56 284.96,169.6 			"/>
		</g>
		<path class="st15" d="M298.46,135.6l21.24-12.29c3.71-2.14,6.72,0.13,6.72,5.08v24.59c0,4.95-3.01,10.7-6.72,12.85l-21.24,12.29
			c-3.71,2.14-6.72-0.13-6.72-5.08v-24.59C291.73,143.5,294.75,137.74,298.46,135.6z"/>
		<path class="st16" d="M295.83,176.12l21.24-12.29c3.71-2.14,6.72-7.9,6.72-12.85V126.4c0-1.57-0.3-2.86-0.83-3.84
			c2.06,0.34,3.46,2.47,3.46,5.84v24.59c0,4.95-3.01,10.7-6.72,12.85l-21.24,12.29c-2.54,1.47-4.75,0.86-5.89-1.25
			C293.53,177.03,294.65,176.8,295.83,176.12z"/>
		<g>
			<path class="st14" d="M314.96,142.47l21.24-12.29c3.71-2.14,6.72,0.13,6.72,5.08v24.59c0,4.95-3.01,10.7-6.72,12.85l-21.24,12.29
				c-3.71,2.14-6.72-0.13-6.72-5.08v-24.59C308.23,150.37,311.25,144.62,314.96,142.47z"/>
			<path class="st17" d="M311.49,140.44l21.24-12.29c1.59-0.92,3.05-1.02,4.2-0.45l0.04-0.04l3.67,2.16l-0.01,0.05
				c-1.18-0.7-2.73-0.66-4.43,0.32l-21.24,12.29c-3.71,2.14-6.72,7.9-6.72,12.85v24.59c0,2.41,0.72,4.17,1.87,5.12l-2.05-1.35
				c-1.72-0.99-3.29-2.52-3.29-5.8v-24.59C304.77,148.34,307.78,142.59,311.49,140.44z"/>
			<path class="st8" d="M314.58,142.16l21.24-12.29c1.84-1.07,3.51-1.04,4.73-0.14c-1.1-0.42-2.45-0.27-3.91,0.58L315.4,142.6
				c-3.71,2.14-6.72,7.9-6.72,12.85v24.59c0,2.49,0.76,4.3,1.99,5.22c-1.7-0.65-2.81-2.66-2.81-5.66v-24.59
				C307.86,150.06,310.87,144.3,314.58,142.16z"/>
			<path class="st4" d="M314.25,150.28v28.15l23.04-13.31v-28.15L314.25,150.28z M315.73,151.13l20.08-11.6v24.74l-20.08,11.6
				V151.13z"/>
			<path class="st4" d="M319.31,155.28c0,1.84,1.3,2.59,2.91,1.66c1.61-0.93,2.91-3.18,2.91-5.02s-1.3-2.59-2.91-1.66
				C320.62,151.19,319.31,153.44,319.31,155.28z"/>
			<polygon class="st4" points="336.52,157.64 330.52,149.89 324.43,165.3 320,161.7 315.11,174.99 315.2,176.33 336.43,164.98 			
				"/>
		</g>
	</g>
	<g>
		<g>
			<path class="st13" d="M55.47,158.7c0,3.82,1.32,6.53,3.47,7.85c0.06,0.04,3.67,2.27,3.73,2.31c2.23,1.25,0.8-1.58,4.2-3.54
				c6.82-3.94,12.35-13.48,12.35-21.31c0-3.87,3.58-3.9,1.39-5.2c-0.06-0.04-4.09-2.34-4.15-2.37c-2.23-1.21-5.27-0.98-8.62,0.95
				C61,141.33,55.47,150.87,55.47,158.7z"/>
			<path class="st4" d="M71.27,139.5c3.27-1.89,6.24-2.14,8.45-1.04c-2.06-0.58-4.62-0.15-7.39,1.45
				c-6.82,3.94-12.36,13.48-12.36,21.31c0,4.08,1.5,6.88,3.9,8.08c-3.02-0.84-4.97-3.84-4.97-8.5
				C58.92,152.98,64.45,143.44,71.27,139.5z"/>
			
				<ellipse transform="matrix(0.5047 -0.8633 0.8633 0.5047 -97.3313 138.3069)" class="st18" cx="71.87" cy="153.98" rx="17.42" ry="10.06"/>
		</g>
		<path class="st19" d="M74.08,148.9c0,1.1,0.78,1.54,1.74,0.99c0.96-0.55,1.74-1.89,1.74-2.99c0-1.1-0.78-1.54-1.74-0.99
			C74.85,146.46,74.08,147.8,74.08,148.9z"/>
		<path class="st19" d="M67.05,152.95c0,1.1,0.78,1.54,1.74,0.99c0.96-0.55,1.74-1.89,1.74-2.99c0-1.1-0.78-1.54-1.74-0.99
			C67.83,150.51,67.05,151.85,67.05,152.95z"/>
		<path class="st19" d="M78.86,153.43l-1.62,0.27c-0.75,2.84-2.74,5.61-4.97,6.89c-2.16,1.25-4.14,0.84-4.92-1.02l-1.6,1.64
			c1.04,2.47,3.66,3.01,6.52,1.36C75.22,160.86,77.87,157.19,78.86,153.43z"/>
		<path class="st20" d="M75.3,149.53c0.96-0.55,1.74-1.89,1.74-2.99c0-0.36-0.09-0.64-0.23-0.85c0.45,0.1,0.74,0.53,0.74,1.2
			c0,1.1-0.78,2.44-1.74,2.99c-0.65,0.37-1.2,0.28-1.5-0.14C74.59,149.81,74.93,149.75,75.3,149.53z"/>
		<path class="st20" d="M68.28,153.59c0.96-0.55,1.74-1.89,1.74-2.99c0-0.36-0.09-0.64-0.23-0.85c0.45,0.1,0.74,0.53,0.74,1.2
			c0,1.1-0.78,2.44-1.74,2.99c-0.65,0.37-1.2,0.28-1.5-0.14C67.57,153.86,67.91,153.8,68.28,153.59z"/>
		<g>
			<path class="st20" d="M67.15,159.78l0.2-0.2c0.18,0.44,0.44,0.79,0.74,1.06C67.72,160.44,67.4,160.15,67.15,159.78z"/>
			<path class="st20" d="M71.76,162.21c2.83-1.63,5.38-5.08,6.46-8.68l0.64-0.11c-0.99,3.76-3.64,7.44-6.59,9.14
				c-2.16,1.25-4.17,1.24-5.48,0.11C68.08,163.43,69.87,163.31,71.76,162.21z"/>
		</g>
	</g>
	<g>
		<g>
			<polygon class="st15" points="61.54,281.5 61.54,349.68 55.43,346.1 55.43,277.77 			"/>
			<polygon class="st9" points="61.52,281.5 61.52,349.68 194.81,273.24 194.81,204.91 			"/>
			<polygon class="st5" points="194.81,204.91 61.52,281.5 55.43,277.77 188.77,201.23 			"/>
			<polygon class="st8" points="194.81,204.91 61.52,281.5 55.43,277.77 61.53,280.65 			"/>
		</g>
		
			<ellipse transform="matrix(0.5047 -0.8633 0.8633 0.5047 -213.5289 226.3878)" class="st15" cx="90.53" cy="299.28" rx="29.49" ry="17.03"/>
		<path class="st16" d="M88.53,321.53c11.55-6.67,20.92-22.82,20.92-36.08c0-4.95-1.3-8.79-3.54-11.32
			c3.44,2.29,5.54,6.79,5.54,13.07c0,13.26-9.36,29.41-20.92,36.08c-7.24,4.18-13.62,3.64-17.38-0.61
			C76.97,325.22,82.44,325.04,88.53,321.53z"/>
		<g>
			<path class="st15" d="M149.23,293.03l4.5-2.6v-50.68l-4.5,2.6V293.03z M142.76,296.71l4.5-2.6v-56.91l-4.5,2.6V296.71z
				 M136.09,300.52l4.5-2.6v-49.27l-4.5,2.6V300.52z M162.57,257.42v27.77l4.5-2.6v-27.77L162.57,257.42z M155.9,288.99l4.5-2.6
				v-41.89l-4.5,2.6V288.99z M129.55,304.33l4.5-2.6v-39.01l-4.5,2.6V304.33z M123.13,308.08l4.5-2.6v-26.67l-4.5,2.6V308.08z
				 M169.24,281.16l4.5-2.6v-31.16l-4.5,2.6V281.16z M182.57,254.44v18.88l4.5-2.6v-18.88L182.57,254.44z M175.91,277.13l4.5-2.6
				v-32.69l-4.5,2.6V277.13z"/>
			<path class="st0" d="M149.23,293.03l4.5-2.6v-30.79l-4.5,2.6V293.03z M142.76,296.71l4.5-2.6v-48.47l-4.5,2.6V296.71z
				 M136.09,300.52l4.5-2.6v-40.27l-4.5,2.6V300.52z M162.57,264.16v21.02l4.5-2.6v-21.02L162.57,264.16z M155.9,288.99l4.5-2.6
				v-28.25l-4.5,2.6V288.99z M169.24,281.16l4.5-2.6v-28.61l-4.5,2.6V281.16z M182.57,267.85v5.47l4.5-2.6v-5.47L182.57,267.85z
				 M175.91,277.13l4.5-2.6v-11.86l-4.5,2.6V277.13z M129.55,304.33l4.5-2.6v-31.75l-4.5,2.6V304.33z M123.13,308.08l4.5-2.6v-22.71
				l-4.5,2.6V308.08z"/>
			<g>
				<polygon class="st4" points="136.09,260.81 140.59,258.21 140.59,257.65 136.09,260.25 				"/>
				<polygon class="st4" points="142.76,248.8 147.25,246.21 147.25,245.64 142.76,248.24 				"/>
				<polygon class="st4" points="123.13,285.93 127.63,283.33 127.63,282.77 123.13,285.36 				"/>
				<polygon class="st4" points="149.23,262.8 153.73,260.2 153.73,259.64 149.23,262.24 				"/>
				<polygon class="st4" points="129.55,273.14 134.05,270.55 134.05,269.99 129.55,272.58 				"/>
				<polygon class="st4" points="175.91,265.83 180.4,263.23 180.4,262.67 175.91,265.27 				"/>
				<polygon class="st4" points="169.24,253.12 173.74,250.52 173.74,249.96 169.24,252.56 				"/>
				<polygon class="st4" points="182.57,267.85 182.57,268.42 187.07,265.82 187.07,265.26 				"/>
				<polygon class="st4" points="155.9,261.3 160.4,258.71 160.4,258.15 155.9,260.74 				"/>
				<polygon class="st4" points="162.57,264.73 167.07,262.13 167.07,261.57 162.57,264.16 				"/>
			</g>
		</g>
		<g>
			<g>
				<path class="st13" d="M111.1,290.42c-0.27-10.02-7.56-14-16.49-8.84c-4.6,2.66-8.76,7.23-11.76,12.46l-3.3-0.83
					c3.75-6.81,9.11-12.82,15.06-16.25c11.24-6.49,20.4-1.36,20.54,11.43l-2.64,2.39L111.1,290.42z"/>
				<path class="st13" d="M86.33,321.68c2.44,0.22,5.26-0.46,8.28-2.2c8.46-4.89,15.45-16.27,16.4-26.24l4.03-2.03
					c-0.01,0.07,1.35,0.35,1.34,0.42c-1.17,12.41-11.24,26.39-21.77,32.47c-3.83,2.21-6.42,3.37-9.49,3.04
					c-0.13-0.01-1.25-0.33-1.38-0.35L86.33,321.68z"/>
				<path class="st13" d="M81.29,297.06c-2,4.29-3.2,8.83-3.2,13.01c0,5.99,2.44,9.92,6.23,11.21l-2.55,5.06
					c-4.69-1.61-7.71-6.51-7.71-13.94c0-5.18,1.47-10.83,3.95-16.16L81.29,297.06z"/>
			</g>
			<path class="st13" d="M88.94,305.36c1.11-0.94,2.11-2.14,2.9-3.47c0.48-0.8,0.46-1.67,0-1.94c-0.6-0.35-1.13-0.91-1.48-1.65
				c-0.51,0.14-1.14-0.05-1.14-0.74c0-0.71,0.31-1.48,0.73-1.87c0.12-3.04,1.16-6.16,4.66-8.18c1.22-0.71,2.14-0.93,2.83-0.8
				c0.16,0.03,1.55,0.4,1.68,0.46c0.95,0.47,0.08,1.49,0.15,3.14c0.42-0.09,0.73,0.32,0.73,1.03c0,0.7-0.63,1.61-1.14,2.06
				c-0.35,1.14-0.88,2.31-1.48,3.36c-0.47,0.81-0.48,1.7,0,1.95c0.79,0.41,1.79,0.46,2.9,0.12c0.44-0.13,0.85-0.15,1.21-0.05
				c0.1,0.03,1.35,0.35,1.44,0.4c0.65,0.32-0.09,0.8-0.09,1.9v3.13c0,0.61-0.43,1.35-0.96,1.65l-13.43,8.89
				c-0.23,0.13-1.55-0.33-1.72-0.4c-0.21-0.08-0.35-0.31-0.35-0.65v-3.13C86.38,308.76,87.47,306.61,88.94,305.36z"/>
			<g>
				<path class="st4" d="M112.01,290.67c-0.27-10.02-7.56-14-16.49-8.84c-4.6,2.66-8.76,7.23-11.76,12.46l-3.3-0.83
					c3.75-6.81,9.11-12.82,15.06-16.25c11.24-6.49,20.4-1.36,20.54,11.43L112.01,290.67z"/>
				<path class="st4" d="M87.23,321.94c2.44,0.22,5.26-0.46,8.28-2.2c8.46-4.89,15.45-16.27,16.4-26.24l4.03-2.03
					c-1.08,12.46-9.83,26.77-20.43,32.89c-3.99,2.3-7.71,3.14-10.87,2.69L87.23,321.94z"/>
				<path class="st4" d="M82.19,297.31c-2,4.29-3.2,8.83-3.2,13.01c0,5.99,2.44,9.92,6.23,11.21l-2.55,5.06
					c-4.69-1.61-7.71-6.51-7.71-13.94c0-5.18,1.47-10.83,3.95-16.16L82.19,297.31z"/>
			</g>
			<path class="st4" d="M89.84,305.62c1.11-0.94,2.11-2.14,2.9-3.47c0.48-0.8,0.46-1.67,0-1.94c-0.6-0.35-1.13-0.91-1.48-1.65
				c-0.51,0.14-1.14-0.05-1.14-0.74c0-0.71,0.31-1.48,0.73-1.87c0.12-3.04,1.16-6.16,4.66-8.18c3.5-2.02,4.53-0.09,4.66,2.8
				c0.42-0.09,0.73,0.32,0.73,1.03c0,0.7-0.63,1.61-1.14,2.06c-0.35,1.14-0.88,2.31-1.48,3.36c-0.47,0.81-0.48,1.7,0,1.95
				c0.79,0.41,1.79,0.46,2.9,0.12c1.47-0.44,2.56,0.44,2.56,2.25v3.13c0,0.61-0.43,1.35-0.96,1.65l-14.54,8.39
				c-0.53,0.31-0.96,0.06-0.96-0.55v-3.13C87.28,309.02,88.38,306.87,89.84,305.62z"/>
			<g>
				<path class="st21" d="M112.52,290.8c-0.27-10.02-7.56-14-16.49-8.84c-4.6,2.66-8.76,7.23-11.76,12.46l-3.3-0.83
					c3.75-6.81,9.11-12.82,15.06-16.25c11.24-6.49,20.4-1.36,20.54,11.43L112.52,290.8z"/>
				<path class="st21" d="M87.75,322.07c2.44,0.22,5.26-0.46,8.28-2.2c8.46-4.89,15.45-16.27,16.4-26.24l4.03-2.03
					c-1.08,12.46-9.83,26.77-20.43,32.89c-3.99,2.3-7.71,3.14-10.87,2.69L87.75,322.07z"/>
				<path class="st21" d="M82.71,297.44c-2,4.29-3.2,8.83-3.2,13.01c0,5.99,2.44,9.92,6.23,11.21l-2.55,5.06
					c-4.69-1.61-7.71-6.51-7.71-13.94c0-5.18,1.47-10.83,3.95-16.16L82.71,297.44z"/>
			</g>
			<path class="st21" d="M90.36,305.75c1.11-0.94,2.11-2.14,2.9-3.47c0.48-0.8,0.46-1.67,0-1.94c-0.6-0.35-1.13-0.91-1.48-1.65
				c-0.51,0.14-1.14-0.05-1.14-0.74c0-0.71,0.31-1.48,0.73-1.87c0.12-3.04,1.16-6.16,4.66-8.18c3.5-2.02,4.53-0.09,4.66,2.8
				c0.42-0.09,0.73,0.32,0.73,1.03c0,0.7-0.63,1.61-1.14,2.06c-0.35,1.14-0.88,2.31-1.48,3.36c-0.47,0.81-0.48,1.7,0,1.95
				c0.79,0.41,1.79,0.46,2.9,0.12c1.47-0.44,2.56,0.44,2.56,2.25v3.13c0,0.61-0.43,1.35-0.96,1.65l-14.54,8.39
				c-0.53,0.31-0.96,0.06-0.96-0.55v-3.13C87.8,309.14,88.89,307,90.36,305.75z"/>
		</g>
	</g>
	<g>
		<g>
			<polygon class="st17" points="194.07,264.37 194.07,292.92 189.28,290.29 189.28,261.58 			"/>
			<polygon class="st14" points="194.05,264.37 194.05,292.92 299.69,231.93 299.69,203.22 			"/>
			<polygon class="st22" points="299.69,203.22 194.05,264.37 189.28,261.58 294.97,200.49 			"/>
			<polygon class="st8" points="299.69,203.22 194.05,264.37 189.28,261.58 193.95,263.62 			"/>
		</g>
		<polygon class="st4" points="199.42,284.28 294.48,228.8 294.48,211.98 199.42,267.46 		"/>
		<g>
			<path class="st16" d="M289.21,229.51l-2.65,1.53l-0.91-6.77l-0.04,0.02l-0.91,7.82l-2.48,1.43l-1.29-11.3l1.72-0.99l0.89,8.16
				l0.04-0.02l0.94-9.21l2.18-1.26l0.94,8.12l0.04-0.02l0.89-9.18l1.92-1.11L289.21,229.51z"/>
			<path class="st16" d="M277.83,236.13l-2.65,1.53l-0.91-6.77l-0.04,0.02l-0.91,7.82l-2.48,1.43l-1.29-11.3l1.72-0.99l0.89,8.16
				l0.04-0.02l0.94-9.21l2.18-1.26l0.94,8.12l0.04-0.02l0.89-9.18l1.92-1.11L277.83,236.13z"/>
			<path class="st16" d="M266.36,242.65l-2.65,1.53l-0.91-6.77l-0.04,0.02l-0.91,7.82l-2.48,1.43l-1.29-11.3l1.72-0.99l0.89,8.16
				l0.04-0.02l0.94-9.21l2.18-1.26l0.94,8.12l0.04-0.02l0.89-9.18l1.92-1.11L266.36,242.65z"/>
		</g>
	</g>
	<g>
		<g>
			<polygon class="st13" points="251.73,117.45 251.73,137.36 248.73,135.71 248.73,115.64 			"/>
			<polygon class="st18" points="251.71,117.45 251.71,137.36 269.43,127.12 269.43,107.06 			"/>
			<polygon class="st21" points="269.43,107.06 251.71,117.45 248.73,115.64 266.49,105.31 			"/>
			<polygon class="st4" points="269.43,107.06 251.71,117.45 248.73,115.64 251.86,116.49 			"/>
		</g>
		<g>
			<polygon class="st7" points="236.15,110.81 236.15,143.05 231.28,140.37 231.28,107.88 			"/>
			<polygon class="st23" points="264.81,93.98 236.11,110.81 231.28,107.88 260.04,91.14 			"/>
			<polygon class="st8" points="264.81,93.98 236.11,110.81 231.28,107.88 235.98,110.12 			"/>
		</g>
		<polygon class="st6" points="264.81,93.98 264.81,107.35 249.62,116.26 249.62,135.24 236.11,143.05 236.11,110.81 		"/>
	</g>
	<g>
		<g>
			<polygon class="st17" points="174.81,188.65 174.81,210.91 171.45,209.06 171.45,186.63 			"/>
			<polygon class="st14" points="174.78,188.65 174.78,210.91 194.6,199.46 194.6,177.03 			"/>
			<polygon class="st22" points="194.6,177.03 174.78,188.65 171.45,186.63 191.31,175.07 			"/>
			<polygon class="st8" points="194.6,177.03 174.78,188.65 171.45,186.63 174.95,187.58 			"/>
		</g>
		<g>
			<polygon class="st17" points="148.81,203.65 148.81,225.91 145.45,224.06 145.45,201.63 			"/>
			<polygon class="st14" points="148.78,203.65 148.78,225.91 168.6,214.46 168.6,192.03 			"/>
			<polygon class="st22" points="168.6,192.03 148.78,203.65 145.45,201.63 165.31,190.07 			"/>
			<polygon class="st8" points="168.6,192.03 148.78,203.65 145.45,201.63 148.95,202.58 			"/>
		</g>
		<g>
			<polygon class="st17" points="122.97,218.49 122.97,240.74 119.62,238.89 119.62,216.47 			"/>
			<polygon class="st14" points="122.95,218.49 122.95,240.74 142.76,229.3 142.76,206.87 			"/>
			<polygon class="st22" points="142.76,206.87 122.95,218.49 119.62,216.47 139.47,204.91 			"/>
			<polygon class="st8" points="142.76,206.87 122.95,218.49 119.62,216.47 123.12,217.41 			"/>
		</g>
		<g>
			<polygon class="st17" points="97.47,232.99 97.47,255.24 94.12,253.39 94.12,230.97 			"/>
			<polygon class="st14" points="97.45,232.99 97.45,255.24 117.26,243.8 117.26,221.37 			"/>
			<polygon class="st22" points="117.26,221.37 97.45,232.99 94.12,230.97 113.97,219.41 			"/>
			<polygon class="st8" points="117.26,221.37 97.45,232.99 94.12,230.97 97.62,231.91 			"/>
		</g>
		<path class="st4" d="M128.91,227.91c0.7-0.6,1.33-1.36,1.83-2.19c0.3-0.51,0.29-1.06,0-1.23c-0.38-0.22-0.72-0.58-0.94-1.04
			c-0.32,0.09-0.72-0.03-0.72-0.47c0-0.45,0.2-0.94,0.46-1.19c0.08-1.92,0.74-3.9,2.95-5.18c2.21-1.28,2.87-0.06,2.95,1.77
			c0.27-0.06,0.46,0.2,0.46,0.65c0,0.44-0.4,1.02-0.72,1.3c-0.22,0.72-0.55,1.46-0.94,2.12c-0.29,0.51-0.31,1.07,0,1.23
			c0.5,0.26,1.13,0.29,1.83,0.08c0.93-0.28,1.62,0.28,1.62,1.42v1.98c0,0.38-0.27,0.85-0.61,1.05l-9.2,5.31
			c-0.33,0.19-0.61,0.04-0.61-0.35v-1.98C127.29,230.06,127.98,228.7,128.91,227.91z"/>
		<path class="st4" d="M113.68,236.47l-3.21,1.85v5.76l3.21-1.85V236.47z M108.6,234.61l-3.21,1.85v10.56l3.21-1.85V234.61z
			 M100.3,234.6v15.35l3.21-1.85v-15.35L100.3,234.6z"/>
		<path class="st4" d="M153.59,213.06l-1.52,1.94c0.15,0.59,0.39,1.09,0.69,1.5l1.73-1.47c0.3,0.3,0.66,0.5,1.08,0.61l-0.41,2.22
			c0.51,0.05,1.07,0,1.66-0.17l0.93-2.28c0.25-0.1,0.5-0.22,0.76-0.37c0.26-0.15,0.51-0.33,0.76-0.51l0.93,1.2
			c0.59-0.52,1.14-1.11,1.66-1.74l-0.41-1.74c0.41-0.58,0.77-1.21,1.08-1.86l1.73-0.52c0.3-0.76,0.53-1.53,0.69-2.3l-1.52-0.19
			c0.04-0.31,0.06-0.61,0.06-0.91c0-0.3-0.03-0.57-0.06-0.84l1.52-1.94c-0.15-0.59-0.39-1.09-0.69-1.5l-1.73,1.47
			c-0.3-0.3-0.66-0.5-1.08-0.61l0.41-2.22c-0.51-0.05-1.07,0-1.66,0.17l-0.93,2.28c-0.25,0.1-0.5,0.22-0.76,0.37
			c-0.26,0.15-0.51,0.33-0.76,0.51l-0.93-1.2c-0.59,0.52-1.14,1.11-1.66,1.74l0.41,1.74c-0.41,0.58-0.77,1.21-1.08,1.86l-1.73,0.52
			c-0.3,0.76-0.53,1.53-0.69,2.3l1.52,0.19c-0.04,0.31-0.06,0.61-0.06,0.91C153.52,212.52,153.55,212.79,153.59,213.06z
			 M156.5,210.5c0-1.27,0.89-2.81,2-3.44c1.1-0.64,2-0.13,2,1.14c0,1.27-0.89,2.81-2,3.44C157.39,212.28,156.5,211.77,156.5,210.5z"
			/>
		<g>
			<path class="st4" d="M190.92,185.89l-6.38,9.96l-6.38-2.6c0,0,0,0.01-0.01,0.01c0.21-0.31,0.47-0.57,0.76-0.74l11.25-6.5
				C190.46,185.86,190.72,185.82,190.92,185.89C190.93,185.89,190.93,185.89,190.92,185.89z"/>
			<path class="st4" d="M177.67,194.68v7.62c0,0.79,0.56,1.11,1.25,0.71l11.25-6.5c0.69-0.4,1.25-1.36,1.25-2.16v-7.62
				c0-0.46-0.19-0.75-0.48-0.84l-4.25,7.32l4.25,2.42c-0.01,0.01-0.01,0.02-0.02,0.03l-4.57-1.86l-1.81,3.12l-6.4-3.65
				C177.86,193.71,177.67,194.22,177.67,194.68z M178.15,203.02l4.25-7.32l0.34,0.19l-4.57,7.13
				C178.16,203.03,178.16,203.02,178.15,203.02z"/>
		</g>
	</g>
	<g>
		<g>
			<polygon class="st15" points="274.58,253.73 274.58,282.28 270.08,279.71 270.08,251 			"/>
			<polygon class="st9" points="274.56,253.73 274.56,282.28 351.23,238.03 351.23,209.32 			"/>
			<polygon class="st5" points="351.23,209.32 274.56,253.73 270.08,251 346.78,206.65 			"/>
			<polygon class="st8" points="351.23,209.32 274.56,253.73 270.08,251 274.74,252.88 			"/>
		</g>
		<path class="st4" d="M320.05,233.83v9.49c0,0.99,0.7,1.38,1.56,0.89l0.88-0.51v5.03l4.38-7.55l8.76-5.06
			c0.86-0.5,1.56-1.7,1.56-2.69v-9.49c0-0.99-0.7-1.38-1.56-0.89l-14.02,8.09C320.74,231.64,320.05,232.84,320.05,233.83z
			 M331.48,231.02c0.46-0.79,1.2-1.21,1.65-0.95c0.46,0.26,0.46,1.11,0,1.9c-0.46,0.79-1.2,1.21-1.65,0.95
			C331.03,232.66,331.03,231.81,331.48,231.02z M327.69,233.21c0.46-0.79,1.2-1.21,1.65-0.95c0.46,0.26,0.46,1.11,0,1.9
			c-0.46,0.79-1.2,1.21-1.65,0.95C327.23,234.85,327.23,234,327.69,233.21z M323.89,235.41c0.46-0.79,1.2-1.21,1.65-0.95
			c0.46,0.26,0.46,1.11,0,1.9c-0.46,0.79-1.2,1.21-1.65,0.95C323.43,237.04,323.43,236.19,323.89,235.41z M335.62,237.46l-7.49,4.33
			v0.45c0,0.99,0.7,1.38,1.56,0.89l8.76-5.06l4.38,2.5v-5.03l0.88-0.51c0.86-0.5,1.56-1.7,1.56-2.69v-9.49
			c0-0.99-0.7-1.38-1.56-0.89l-5.35,3.09v7.71C338.34,234.48,337.12,236.59,335.62,237.46z"/>
		<polygon class="st4" points="316.85,235.92 316.85,238.29 280.23,259.43 280.23,257.06 		"/>
		<polygon class="st4" points="291.81,260.24 316.85,245.77 316.85,248.14 291.81,262.61 		"/>
		<polygon class="st4" points="316.85,243.21 280.23,264.36 280.23,261.99 316.85,240.84 		"/>
	</g>
	<g>
		<path class="st24" d="M223.49,313.41l23.81-13.37c-2.06-1.51-3.26-3.3-3.26-5.23c0-5.33,9.09-9.64,20.3-9.64
			c11.21,0,20.3,4.32,20.3,9.64c0,5.33-9.09,9.64-20.3,9.64c-2.34,0-4.57-0.2-6.66-0.54l-25.64,14.4c-1.66,0.96-4.55,0.84-6.46-0.27
			C223.47,316.96,220.95,314.9,223.49,313.41z"/>
		<g>
			<g>
				<path class="st12" d="M223.58,310.78c-1.43,2.65-0.44,5.95,2.21,7.38c2.65,1.43,5.95,0.44,7.38-2.21
					c1.43-2.65,0.44-5.95-2.21-7.38C228.31,307.14,225,308.13,223.58,310.78z"/>
				<path class="st16" d="M240.82,276.51l11.8,6.36l-17.6,32.46l0,0c-0.01,0.02-0.01,0.03-0.02,0.05c-1.02,1.9-4.49,2.01-7.75,0.26
					c-3.26-1.76-5.07-4.72-4.05-6.61c0.01-0.02,0.02-0.03,0.03-0.05l0,0L240.82,276.51z"/>
				<path class="st15" d="M240.81,276.53c-1.02,1.9,0.79,4.86,4.05,6.61c3.26,1.76,6.73,1.64,7.75-0.26
					c1.02-1.9-0.79-4.86-4.05-6.61C245.3,274.52,241.83,274.64,240.81,276.53z"/>
				<path class="st12" d="M248.54,267.9l7.02,3.78l-4.99,9.26l0,0c0,0.01-0.01,0.02-0.01,0.03c-0.61,1.13-2.67,1.2-4.61,0.15
					c-1.94-1.04-3.02-2.81-2.41-3.93c0.01-0.01,0.01-0.02,0.02-0.03l0,0L248.54,267.9z"/>
			</g>
			<g>
				<path class="st5" d="M268.36,193.46c8.74-5.04,16.66-5.62,22.46-2.48c0.16,0.09,8.48,4.73,8.74,5.13
					c-5.9-4.45-14.63-4.38-24.38,1.24c-17.77,10.26-32.17,35.1-32.17,55.49c0,10.4,3.75,17.63,9.78,20.86
					c-0.43-0.12-0.94-0.34-1.57-0.69c-0.17-0.1-5.84-3.53-6.01-3.64c-5.59-3.41-9.02-10.47-9.02-20.43
					C236.19,228.57,250.59,203.72,268.36,193.46z"/>
			</g>
			<path class="st2" d="M243.01,252.85c0,20.39,14.4,28.6,32.17,18.34c17.77-10.26,32.17-35.1,32.17-55.49
				c0-20.39-14.4-28.6-32.17-18.34C257.41,207.62,243.01,232.46,243.01,252.85z M248.36,250.76c0-17.3,12.22-38.38,27.3-47.09
				c15.08-8.7,27.3-1.74,27.3,15.56s-12.22,38.38-27.3,47.09C260.58,275.02,248.36,268.06,248.36,250.76z"/>
			<path class="st5" d="M270.01,263.16c15.08-8.7,27.3-29.79,27.3-47.09c0-7.06-2.04-12.39-5.47-15.65
				c6.74,1.81,11.12,8.46,11.12,18.81c0,17.3-12.22,38.38-27.3,47.09c-8.93,5.15-16.85,4.81-21.83,0.09
				C258.36,267.62,263.95,266.66,270.01,263.16z"/>
			<path class="st4" d="M273.63,196.59c8.52-4.92,16.25-5.58,22.01-2.7c-5.36-1.5-13.26-0.69-20.47,3.47
				c-17.77,10.26-32.17,35.1-32.17,55.49c0,10.61,5.14,18.23,11.4,21.35c-7.85-2.2-12.94-10.01-12.94-22.12
				C241.46,231.69,255.87,206.84,273.63,196.59z"/>
		</g>
	</g>
</g>
</svg>
